<?xml version="1.0" encoding="UTF-8" standalone="no"?>
<!DOCTYPE svg PUBLIC "-//W3C//DTD SVG 1.1//EN" "http://www.w3.org/Graphics/SVG/1.1/DTD/svg11.dtd">
<svg width="100%" height="100%" viewBox="0 0 293 205" version="1.1" xmlns="http://www.w3.org/2000/svg" xmlns:xlink="http://www.w3.org/1999/xlink" xml:space="preserve" xmlns:serif="http://www.serif.com/" style="fill-rule:evenodd;clip-rule:evenodd;stroke-linecap:round;stroke-linejoin:round;stroke-miterlimit:10;">
    <g transform="matrix(1,0,0,1,-395.9,-820.4)">
        <clipPath id="_clip1">
            <rect x="395.9" y="745.1" width="294.6" height="279.8"/>
        </clipPath>
        <g clip-path="url(#_clip1)">
            <path d="M339.3,1028.6C340.8,1025.4 353.7,997.3 366.7,969.8C360.7,960.5 364.7,952.8 368.2,946.1C370.1,942.4 372,939 371.8,935.7C371,913.7 379.9,897.4 394.6,894.1C397.4,893.5 399.8,893.2 402.1,893.2C405.1,893.2 407.7,893.7 410.2,894.8C411.6,893.5 413,892.2 414.4,891C411.6,888.4 410.1,885.5 409.9,882.2C409.6,877.7 412.1,872.7 416.7,868.5C422,863.7 433.2,855.6 448.4,855.6C449.3,855.6 450.1,855.6 451,855.7C450.6,854.8 450,853.7 448.9,852.8C446.8,851.2 447,849.6 447.3,848.8C448,846.7 450.9,845.6 455.4,845.6C459.3,845.6 465.1,846.8 469.4,850C469.7,849.3 470.1,848.7 470.7,848.3C471.2,848 472,847.8 472.9,847.8C476.3,847.8 483.5,850.5 488.4,857.7C492,863 492,868.5 488.5,873.7C506.8,878.4 518.6,889.3 528,898.1C530.5,900.5 533,902.7 535.3,904.6C546,913.5 556.7,917.8 568,917.8C568.9,917.8 569.8,917.8 570.7,917.7C572.7,904.2 566.6,892.2 560.7,882C554.5,871.3 554.3,869.9 555.8,868.1L555.9,868C556.5,867.3 557.2,867 558,866.9L558.3,866.9C560,866.9 562.8,867.9 571.3,875.6C581.2,884.6 588.2,897.8 590.5,912.1C599.4,907.2 605.7,899.6 607.6,891.8C609.6,883.2 608.1,875 603.4,869.1L590.3,875.2L583.3,858.3L567.7,861.5L574.9,842L575,842L574.8,841.5L579.4,830.4L645.1,842.3C648.2,842.9 649,845 648.7,846.8L648.5,847.8L648.1,847.7C647.8,848.1 647.5,848.4 647.1,848.6C646.4,848.9 639.6,852.2 626.1,858.5C628.2,861.4 628.3,864.6 626.5,867.9C625.4,869.8 624,874.1 626.9,881.2C630.6,890.1 630.4,910.4 618.6,927.4C610.5,939.1 600.3,950.4 581,954C578,958.6 574.5,963 570.8,966.6C563,974.2 546.8,981.9 528.5,981.9C523.2,981.9 517.8,981.3 512.6,980C505,992.9 502.1,1006.2 502,1012.1C501.8,1023.1 502.9,1028.2 502.9,1028.3L503.3,1030.1L338.4,1030.9L339.3,1028.6Z" style="fill-rule:nonzero;"/>
        </g>
        <clipPath id="_clip2">
            <rect x="395.9" y="745.1" width="294.6" height="279.8"/>
        </clipPath>
        <g clip-path="url(#_clip2)">
            <path d="M339.8,1028.8C339.9,1028.5 353.7,998.7 367.3,969.7C361.2,960.5 365.2,952.9 368.7,946.2C370.7,942.5 372.5,938.9 372.4,935.6C371.6,913.9 380.4,897.7 394.8,894.6C397.5,894 399.9,893.7 402.2,893.7C405.2,893.7 407.9,894.2 410.4,895.4C412,893.8 413.6,892.4 415.3,891C412.3,888.4 410.7,885.5 410.5,882.2C410.2,877.8 412.6,873 417.1,868.9C422.4,864.1 433.5,856.1 448.5,856.1C449.6,856.1 450.7,856.1 451.8,856.2C451.5,855.1 450.8,853.5 449.3,852.4C447.5,851 447.6,849.6 447.8,849C448.4,847.2 451.2,846.1 455.4,846.1C459.8,846.1 465.7,847.6 469.7,850.9C469.8,850 470.3,849.2 471,848.8C471.4,848.5 472.1,848.4 472.9,848.4C476.2,848.4 483.2,851 488,858.1C491.6,863.4 491.5,869 487.7,874.2C506.3,878.8 518.2,889.8 527.7,898.6C530.3,901 532.7,903.2 535,905.1C545.8,914 556.6,918.4 568.1,918.4C569.1,918.4 570.2,918.4 571.2,918.3C573.4,904.4 567.2,892.2 561.2,881.9C554.9,871 555,870.1 556.2,868.6L556.3,868.5C556.5,868.3 557,867.6 558.1,867.6L558.3,867.6C559.8,867.6 562.5,868.6 571,876.2C581,885.3 588,898.7 590.2,913.1C599.5,908.1 606.2,900.3 608.1,892.2C610.2,883.3 608.5,874.8 603.6,868.8L590.6,874.9L583.7,858.1L568.6,861.2L575.4,842.8L576,842.8L575.5,841.8L579.9,831.2L645.2,843C648.7,843.7 648.5,846.2 648.4,846.9L648.3,847.4L648.1,847.4C647.9,847.8 647.5,848.2 647.1,848.4C646.4,848.7 639.2,852.1 625.5,858.6C625.6,858.7 625.7,858.8 625.8,859C627.8,861.7 628,864.8 626.2,867.9C625.1,869.9 623.6,874.3 626.6,881.6C630.2,890.4 630,910.4 618.4,927.3C610.3,939 600.2,950.2 580.9,953.7C577.9,958.4 574.4,962.8 570.6,966.4C562.8,973.9 546.9,981.5 528.6,981.5C523.2,981.5 517.7,980.8 512.5,979.5C504.8,992.6 501.8,1006.2 501.6,1012.2C501.4,1023.3 502.5,1028.4 502.5,1028.5L502.8,1029.7L339.3,1030.5L339.8,1028.8Z" style="fill-rule:nonzero;"/>
        </g>
        <path d="M577.5,843.7L576.5,841.6L580.4,832.2L644.9,843.8C647.3,844.3 647.4,845.8 647.3,846.6" style="fill:white;fill-rule:nonzero;stroke:black;stroke-width:1px;"/>
        <path d="M584.2,856.7L591.1,873.3C591.1,873.3 644.8,848.2 646.6,847.3C647.5,846.8 648.1,845.1 645.6,845C643.1,844.9 576,843.6 576,843.6L570.1,859.6L584.2,856.7Z" style="fill:white;fill-rule:nonzero;stroke:black;stroke-width:1.7px;"/>
        <path d="M585.1,857L644,845.8L645.4,845.3L645.8,845.3C646.6,845.3 646.5,845.6 646.6,845.9C646.7,846.2 646.5,846.5 646.2,846.7L587,861.5L585.1,857Z" style="fill:rgb(209,211,212);fill-rule:nonzero;"/>
        <path d="M584.2,856.7L646,845.2" style="fill:none;stroke:black;stroke-width:1px;"/>
        <clipPath id="_clip3">
            <rect x="395.9" y="745.1" width="294.6" height="279.8"/>
        </clipPath>
        <g clip-path="url(#_clip3)">
            <path d="M388.5,927.9C408.5,887.9 438.4,871.6 471.9,873C505.5,874.4 520.7,894.7 534.3,905.9C547.9,917.1 561.8,921.5 577.7,918.4C593.6,915.3 606.2,903.8 608.9,892.3C611.6,880.8 607.9,871.6 602.8,866.5C597.7,861.4 601.4,858.4 606.9,859.7C612.3,861.1 615,863.1 615,863.1C615,863.1 622.8,856.7 624.8,859.4C626.8,862.1 626.5,864.8 625.1,867.2C623.7,869.6 622.4,874.3 625.4,881.8C628.5,889.3 629.5,908.9 617.3,926.6C605.1,944.2 590.8,956.7 555.2,953.1C516.7,949.2 500.6,997.3 500.3,1012.1C500.1,1023.6 501.2,1028.6 501.2,1028.6L340.5,1029.4C340.7,1029.3 373.9,957 388.5,927.9Z" style="fill:rgb(83,96,108);fill-rule:nonzero;stroke:black;stroke-width:1px;"/>
        </g>
        <clipPath id="_clip4">
            <rect x="395.9" y="745.1" width="294.6" height="279.8"/>
        </clipPath>
        <g clip-path="url(#_clip4)">
            <path d="M399.4,989.3C393.3,989.3 389.5,985 389.4,985L389.2,984.8L388.9,984.9C385.8,985.9 382.8,986.4 379.9,986.4C373.8,986.4 368.5,984.2 364.3,979.9C365.7,976.9 367.2,973.8 368.6,970.8C368.7,970.9 368.7,971 368.8,971.1C374.9,979.1 381.5,980.8 385.8,980.8C389,980.8 391.4,979.9 392.4,979.5C393.1,980.8 395.4,984.2 399.9,984.2C401.1,984.2 402.4,983.9 403.8,983.4C410.5,980.9 419.5,970.3 422.1,961.3C425.3,967 419.3,979.6 408.3,986.6C405.3,988.3 402.3,989.3 399.4,989.3ZM423.9,911.2C418.2,900.1 413.1,897 411.5,896.3C427.2,881 446.2,873.3 468.1,873.3C469.4,873.3 470.6,873.3 471.9,873.4C474,873.5 476.1,873.7 478.3,873.9C479.8,876.6 477.9,879.5 477.5,880.2C474.5,881 466.3,886.7 459,891.8C457.1,893.1 455.3,894.4 453.7,895.5C448.4,899.2 440.1,899.7 435.7,899.7C433.9,899.7 432.8,899.6 432.8,899.6L432.5,899.6L423.9,911.2ZM519.2,960.2C523.4,953.1 531.8,945 547.5,945C551,945 554.7,945.4 558.5,946.2C561.9,946.9 565.5,947.3 569.1,947.3C585,947.3 598.9,939.4 603.9,934.8C610.4,928.8 614.4,925 615.9,922.4C617.3,920 619.1,919.6 620.6,920.4C620.7,920.5 619.9,921.5 620,921.5C619.1,923.2 618.1,924.8 617,926.3C605.5,942.9 593.1,953.2 567,953.2C563.4,953.2 559.5,953 555.4,952.6C553.9,952.4 552.4,952.4 551,952.4C541.6,952.4 532.9,955.6 525.1,961.8L519.2,960.2Z" style="fill:rgb(56,67,79);fill-rule:nonzero;"/>
        </g>
        <clipPath id="_clip5">
            <rect x="395.9" y="745.1" width="294.6" height="279.8"/>
        </clipPath>
        <g clip-path="url(#_clip5)">
            <path d="M427.4,920.5C418.3,896.3 408.4,892.6 395,895.5C381.6,898.5 372.6,913.5 373.4,935.5C373.8,945.7 357.9,956 369.1,970.5C380.3,985 392.6,978.5 392.6,978.5C392.6,978.5 395.6,985.6 403.6,982.6C411.6,979.6 420.3,969.1 422.1,961" style="fill:rgb(83,96,108);fill-rule:nonzero;stroke:black;stroke-width:1px;"/>
        </g>
        <clipPath id="_clip6">
            <rect x="395.9" y="745.1" width="294.6" height="279.8"/>
        </clipPath>
        <g clip-path="url(#_clip6)">
            <path d="M417.2,934.2C409.9,934.7 408.6,929.4 409.9,927.2C411.1,925.1 414.5,924 414.5,924C414.5,924 409.2,923.8 408.2,920C407.2,916.3 412.2,914.7 412.2,914.7C412.2,914.7 409.3,906.1 398.9,908.6C388.5,911.1 384.5,920.3 384.7,927.6C385.3,942.9 374.5,950.4 384.7,957.3C394.8,964.2 408.4,954.5 413.2,946C418,937.5 417.2,934.2 417.2,934.2Z" style="fill:rgb(56,67,79);fill-rule:nonzero;"/>
        </g>
        <clipPath id="_clip7">
            <rect x="395.9" y="745.1" width="294.6" height="279.8"/>
        </clipPath>
        <g clip-path="url(#_clip7)">
            <path d="M392.6,978.6C398.9,974.7 401.7,971.1 401.7,971.1M417.2,934.2C409.9,934.7 408.6,929.4 409.9,927.2C411.1,925.1 414.5,924 414.5,924C414.5,924 409.2,923.8 408.2,920C407.2,916.3 412.2,914.7 412.2,914.7C412.2,914.7 409.3,906.1 398.9,908.6C388.5,911.1 384.3,920.3 384.7,927.6" style="fill:none;stroke:black;stroke-width:1px;"/>
        </g>
        <path d="M417.5,891.4C407.7,884.5 411.3,875.4 417.8,869.6C424.3,863.8 436.8,855.6 453,857.4C453,857.4 452.8,853.9 449.9,851.6C447,849.3 449.4,847.1 455.4,847.1C461.4,847.1 468.3,849.7 471.2,854C471.2,854 469.8,850.8 471.6,849.6C473.4,848.4 481.8,850.6 487.2,858.6C492.6,866.6 488.3,873.5 482,878.5C475.7,883.5 445.8,890.1 433.2,889.4" style="fill:rgb(83,96,108);fill-rule:nonzero;"/>
        <path d="M459.5,878.7C448.4,879.3 437.4,882 426.6,884.8C422.5,885.9 418.4,887 414.2,886.8C413.8,886.8 413.4,886.7 412.9,886.7C413.9,888.3 415.4,889.9 417.5,891.4L433.1,889.3C444.4,890 470.1,884.6 479.5,879.9C473,878.8 466.2,878.4 459.5,878.7Z" style="fill:rgb(56,67,79);fill-rule:nonzero;"/>
        <path d="M417.5,890.8C414,888.3 412.2,885.3 412,882C411.8,878.8 413.2,875.3 416,872.1C415.6,873.7 415.8,875.3 416.5,876.8C417.7,879.3 420.1,880.8 422.8,880.8C424.9,880.8 427.1,879.9 429.1,878.2C436.3,872.2 448.5,867.8 458.2,867.8C460.1,867.8 461.9,868 463.5,868.3C471.2,869.9 475.8,872 477.3,875C478.1,876.6 478.1,878.3 477.3,880.4C467.2,884.7 446.1,889 435.2,889C434.5,889 433.8,889 433.1,888.9C431.7,888.8 430.3,888.8 429.1,888.8C421.6,888.7 418.5,890.2 417.5,890.8Z" style="fill:rgb(56,67,79);fill-rule:nonzero;"/>
        <path d="M471.2,854C473.4,857.4 472.3,860.7 472.3,860.7" style="fill:none;stroke:black;stroke-width:1px;"/>
        <path d="M489.6,967.9C524.2,991.4 558.3,976.6 569.8,965.5C581.2,954.4 590.6,937 589.8,919.6C589,902.2 581.3,886.7 570.3,876.8C559.6,867.2 557.9,868.1 557.1,869.1C556.3,870.1 555.7,870.2 562.1,881.3C568.5,892.4 575.5,905.9 571.6,921.5C567.7,937.1 556,951.4 542,955.5C528,959.5 520.4,954.1 515.9,952.3C515.9,952.3 516.9,956.3 512.5,956.6C508.2,956.9 501.4,953.7 501.4,953.7C501.4,953.7 504.1,956.7 501.5,958.7C498.9,960.7 495.6,957.8 495.6,957.8C495.6,957.8 498.1,960 497.1,961.1C496.1,962.2 494.8,961.9 492.9,960.5C492.9,960.5 496.1,964.1 493.9,966C491.7,967.9 489.6,967.9 489.6,967.9Z" style="fill:rgb(179,190,205);fill-rule:nonzero;stroke:black;stroke-width:1.6px;"/>
        <path d="M528.6,979.9C515.5,979.9 502.8,976 491,968.2C491.9,968 493.1,967.5 494.3,966.4C495.7,965.1 495.3,963.4 494.6,962.1C495,962.2 495.4,962.3 495.7,962.3C496.4,962.3 497,962 497.5,961.5C497.8,961.2 497.9,960.9 497.9,960.5C497.9,960.2 497.8,959.9 497.7,959.6C498.3,959.8 498.9,960 499.6,960C500.5,960 501.3,959.7 502,959.2C502.3,959 502.5,958.7 502.7,958.4C515.3,964.6 525.3,967.5 534.2,967.5C542,967.5 548.9,965.2 555.3,960.6C572.1,948.3 576.6,939.3 579.9,932.7L580.2,932.1C582.5,927.6 584.4,925.6 586.6,925.6C587.5,925.6 588.3,925.9 589.3,926.5C587.9,940.1 580.6,954.5 569.7,965.1C561.8,972.5 546.3,979.9 528.6,979.9Z" style="fill:rgb(146,161,181);fill-rule:nonzero;"/>
        <path d="M489.6,967.9C485.7,968 482.9,967 482.9,967" style="fill:none;stroke:black;stroke-width:1px;"/>
        <path d="M484,908.3C481.8,909.2 481.9,911.5 484.1,915C486.2,918.5 488.6,922.9 490,925.3C491.4,927.7 492.6,928.8 494,928.1C495.4,927.5 495.8,926.1 494.4,923.2C493,920.3 488.6,912.2 487.2,910.5C485.6,908.8 484.8,908 484,908.3Z" style="fill:rgb(56,67,79);fill-rule:nonzero;stroke:black;stroke-width:1.5px;"/>
        <path d="M525.9,907.8C528.4,904.1 530.7,902.6 530.7,902.6M534.5,914.5C536,911.4 538.2,908.9 538.2,908.9M550.1,922.2C551.1,918.3 552.8,916.6 552.8,916.6M563.5,925.6C564.1,921 564.4,919 564.4,919" style="fill:none;stroke:black;stroke-width:1px;"/>
        <g>
            <path d="M504.9,862.2C505.7,861.8 506.4,861.4 507.1,861.1" style="fill:none;stroke:rgb(227,229,229);stroke-width:3px;stroke-miterlimit:4;"/>
            <path d="M519.8,856.2C533.4,852.7 541.9,856.7 548,859.5C553.3,861.9 559.6,864.2 565.6,864.8" style="fill:none;stroke:rgb(227,229,229);stroke-width:3px;stroke-miterlimit:4;stroke-dasharray:4.53,13.59;"/>
            <path d="M572.4,864.5C573.2,864.3 574,864.1 574.8,863.8" style="fill:none;stroke:rgb(227,229,229);stroke-width:3px;stroke-miterlimit:4;"/>
        </g>
        <path d="M491.2,946.7C487.1,947.8 485.1,948.5 481.2,950.2C479.1,951.1 476.6,950.3 475.6,948.3C474.6,946.3 475.6,943.7 477.9,942.7C482.2,940.8 484.5,940 489.1,938.8C491.5,938.2 493.9,939.6 494.4,941.7C494.8,943.9 493.4,946.1 491.2,946.7Z" style="fill:rgb(80,87,98);fill-rule:nonzero;"/>
        <path d="M515.8,952.3C515.6,950 514.1,949 514.1,949" style="fill:none;stroke:black;stroke-width:1px;"/>
        <path d="M454.5,887.5C451,888.2 447.4,888.8 443.9,889.2C440.3,889.6 436.7,890 433.1,889.8C432.8,889.8 432.6,889.6 432.6,889.3C432.6,889 432.8,888.8 433.1,888.8C436.6,889 440.2,888.7 443.7,888.4C447.2,888 450.8,887.5 454.3,886.8C454.5,886.8 454.7,886.9 454.7,887.1C454.8,887.3 454.7,887.5 454.5,887.5Z" style="fill-rule:nonzero;"/>
        <path d="M417.2,891.8C415,890.2 412.9,888.2 411.8,885.6L411.4,884.6L411.2,883.6L411.1,883.1L411.1,882.6C411.1,882.2 411,881.9 411,881.5C411,880.1 411.2,878.7 411.7,877.4C412.6,874.8 414.3,872.5 416.1,870.5C418,868.5 420.1,866.9 422.3,865.3C424.5,863.7 426.9,862.4 429.3,861.2C431.7,860 434.3,859 436.9,858.3C442.1,856.8 447.6,856.4 453,856.9L452.4,857.4C452.2,856.1 451.7,854.7 451,853.6C450.6,853 450.2,852.5 449.6,852.1C449.1,851.6 448.4,851.1 448.1,850.2C448,850 448,849.7 448,849.5C448.1,849.3 448.1,849 448.2,848.8C448.4,848.4 448.8,848.1 449.1,847.9C449.8,847.4 450.5,847.2 451.3,847C452.8,846.7 454.3,846.6 455.7,846.6C458.6,846.7 461.6,847.3 464.3,848.4C467,849.5 469.6,851.2 471.4,853.7L470.5,854.2C470.2,853.5 470,852.9 470,852.1C469.9,851.4 470,850.6 470.4,849.8C470.7,849.5 470.9,849.1 471.4,849C471.6,848.9 471.8,848.9 472,848.8C472.2,848.8 472.4,848.7 472.6,848.7C473.3,848.7 474,848.8 474.7,848.9C476.1,849.2 477.3,849.7 478.6,850.3C479.8,850.9 481,851.6 482.1,852.4C484.3,854 486.2,856 487.7,858.3C488.4,859.5 489.1,860.7 489.5,862C489.8,862.6 489.9,863.3 490,864C490.1,864.3 490.1,864.7 490.1,865L490.1,866C490,868.8 488.8,871.5 487.1,873.6C485.4,875.8 483.5,877.6 481.2,879.2C478.8,880.6 476.3,881.5 473.8,882.4C471.3,883.2 468.7,883.9 466,884.3C467.2,883.8 468.5,883.4 469.7,882.9L473.4,881.6C475.9,880.7 478.4,879.8 480.6,878.4C482.7,876.9 484.6,875.1 486.2,873C487.7,870.9 488.8,868.5 488.9,866C489,863.5 488.1,861 486.7,858.9C485.3,856.7 483.5,854.8 481.4,853.3C479.3,851.8 477,850.5 474.5,849.9C473.9,849.8 473.3,849.7 472.7,849.7C472.1,849.7 471.7,849.8 471.4,850.2C470.9,851 471.2,852.5 471.6,853.6C471.7,853.9 471.6,854.1 471.3,854.2C471.1,854.3 470.9,854.2 470.7,854C469.1,851.7 466.7,850.2 464.1,849.1C461.5,848 458.7,847.4 455.9,847.4C454.5,847.4 453.1,847.5 451.7,847.8C451,848 450.4,848.2 449.9,848.5C449.4,848.9 449.1,849.3 449.2,849.8C449.3,850.3 449.8,850.7 450.4,851.2C451,851.7 451.5,852.3 451.9,852.9C452.8,854.2 453.3,855.6 453.5,857.2C453.5,857.5 453.3,857.7 453.1,857.7L453,857.7C447.7,857.2 442.3,857.6 437.2,859.1C434.7,859.8 432.2,860.8 429.8,861.9C427.4,863.1 425.1,864.4 423,866C420.8,867.5 418.7,869.2 416.9,871.1C415.1,873 413.5,875.2 412.7,877.6C412.3,878.8 412.1,880.1 412,881.4C412,881.7 412.1,882 412.1,882.4L412.1,882.9L412.2,883.4L412.4,884.3L412.8,885.2C413.8,887.6 415.7,889.5 417.8,891C418,891.2 418.1,891.5 417.9,891.7C417.7,891.9 417.5,892 417.2,891.8Z" style="fill-rule:nonzero;"/>
        <g>
            <path d="M615.1,863.2C617.1,864.4 617.4,865 617.4,865" style="fill:rgb(56,67,79);fill-rule:nonzero;"/>
            <path d="M615.3,862.9L616.5,863.8C616.7,864 616.9,864.1 617.1,864.3C617.3,864.5 617.4,864.7 617.6,864.9C617.6,865 617.6,865.1 617.5,865.1L617.3,865.1L616.8,864.6C616.6,864.5 616.4,864.3 616.2,864.2C615.8,863.9 615.4,863.7 614.9,863.5C614.7,863.4 614.7,863.2 614.8,863C614.9,862.8 615,862.8 615.3,862.9C615.2,862.9 615.2,862.9 615.3,862.9Z" style="fill-rule:nonzero;"/>
        </g>
    </g>
</svg>
