<?xml version="1.0" encoding="UTF-8" standalone="no"?>
<!DOCTYPE svg PUBLIC "-//W3C//DTD SVG 1.1//EN" "http://www.w3.org/Graphics/SVG/1.1/DTD/svg11.dtd">
<svg width="100%" height="100%" viewBox="0 0 100 100" version="1.1" xmlns="http://www.w3.org/2000/svg" xmlns:xlink="http://www.w3.org/1999/xlink" xml:space="preserve" xmlns:serif="http://www.serif.com/" style="fill-rule:evenodd;clip-rule:evenodd;stroke-linejoin:round;stroke-miterlimit:1.41421;">
    <path d="M72.53,3.033C85.265,3.033 95.605,13.372 95.605,26.108L95.605,58.412C95.605,78.789 79.062,95.332 58.685,95.332L26.38,95.332C13.645,95.332 3.305,84.993 3.305,72.257L3.305,39.953C3.305,19.576 19.848,3.033 40.225,3.033L72.53,3.033ZM42.991,66.039C39.151,68.269 34.514,69.384 29.081,69.384C23.029,69.384 18.215,67.627 14.64,64.115C11.065,60.602 9.278,55.819 9.278,49.766C9.278,43.679 11.224,38.692 15.118,34.808C19.011,30.923 24.161,28.981 30.568,28.981C34.744,28.981 38.372,29.583 41.451,30.786L41.451,38.139C38.443,36.317 34.744,35.405 30.355,35.405C26.479,35.405 23.325,36.684 20.892,39.241C18.458,41.798 17.242,45.174 17.242,49.368C17.242,53.651 18.339,56.983 20.533,59.363C22.728,61.743 25.736,62.933 29.559,62.933C31.895,62.933 33.842,62.553 35.399,61.792L35.399,53.164L27.382,53.164L27.382,47.006L42.991,47.006L42.991,66.039ZM58.547,68.694L58.547,29.618L50.981,29.618L50.981,68.694L58.547,68.694ZM89.632,35.91L89.632,29.618L67.865,29.618L67.865,68.694L75.43,68.694L75.43,52.872L88.517,52.872L88.517,46.661L75.43,46.661L75.43,35.91L89.632,35.91Z" style="fill:white;"/>
</svg>
