<?xml version="1.0" encoding="UTF-8" standalone="no"?>
<!DOCTYPE svg PUBLIC "-//W3C//DTD SVG 1.1//EN" "http://www.w3.org/Graphics/SVG/1.1/DTD/svg11.dtd">
<svg width="100%" height="100%" viewBox="0 0 1412 693" version="1.1" xmlns="http://www.w3.org/2000/svg" xmlns:xlink="http://www.w3.org/1999/xlink" xml:space="preserve" xmlns:serif="http://www.serif.com/" style="fill-rule:evenodd;clip-rule:evenodd;stroke-linecap:round;stroke-linejoin:round;stroke-miterlimit:1.5;">
    <g transform="matrix(1,0,0,1,-115.054,-263.622)">
        <g transform="matrix(1.17678,0,0,1.17678,-201.636,-248.786)">
            <g transform="matrix(1,0,0,1,-11.0475,99.734)">
                <g transform="matrix(0.779847,0.0285383,-0.324349,0.571435,430.451,260.087)">
                    <path d="M288.38,735.741C502.455,659.146 689.034,649.326 836.334,631.65C983.633,613.974 1296.21,547.647 1346.97,525.594C1356.01,521.669 1363.18,523.464 1382.74,521.685C1349.06,532.979 1348.5,537.698 1347.67,541.149C1359.32,545.869 1371.93,540.388 1387.37,541.068C1367.56,546.956 1352.05,558.07 1355.36,559.739C1362.15,563.156 1370.98,565.081 1376.43,566.838C1376.43,566.838 963.993,674.858 850.082,667.002C736.17,659.146 416.039,723.957 353.191,751.453C290.344,778.949 286.416,786.805 194.108,792.697C264.812,759.309 74.304,812.337 288.38,735.741Z" style="fill:none;stroke:rgb(242,13,175);stroke-width:9.04px;"/>
                    <path d="M288.38,735.741C502.455,659.146 689.034,649.326 836.334,631.65C983.633,613.974 1296.21,547.647 1346.97,525.594C1356.01,521.669 1363.18,523.464 1382.74,521.685C1349.06,532.979 1348.5,537.698 1347.67,541.149C1359.32,545.869 1371.93,540.388 1387.37,541.068C1367.56,546.956 1352.05,558.07 1355.36,559.739C1362.15,563.156 1370.98,565.081 1376.43,566.838C1376.43,566.838 963.993,674.858 850.082,667.002C736.17,659.146 416.039,723.957 353.191,751.453C290.344,778.949 286.416,786.805 194.108,792.697C264.812,759.309 74.304,812.337 288.38,735.741Z" style="fill:white;"/>
                </g>
                <g transform="matrix(0.779847,0.0285383,-0.324349,0.571435,430.451,260.087)">
                    <path d="M288.38,735.741C502.455,659.146 689.034,649.326 836.334,631.65C983.633,613.974 1296.21,547.647 1346.97,525.594C1356.01,521.669 1363.18,523.464 1382.74,521.685C1349.06,532.979 1348.5,537.698 1347.67,541.149C1359.32,545.869 1371.93,540.388 1387.37,541.068C1367.56,546.956 1352.05,558.07 1355.36,559.739C1362.15,563.156 1370.98,565.081 1376.43,566.838C1376.43,566.838 963.993,674.858 850.082,667.002C736.17,659.146 416.039,723.957 353.191,751.453C290.344,778.949 286.416,786.805 194.108,792.697C264.812,759.309 74.304,812.337 288.38,735.741Z" style="fill:none;stroke:rgb(242,13,175);stroke-width:9.04px;"/>
                    <path d="M288.38,735.741C502.455,659.146 689.034,649.326 836.334,631.65C983.633,613.974 1296.21,547.647 1346.97,525.594C1356.01,521.669 1363.18,523.464 1382.74,521.685C1349.06,532.979 1348.5,537.698 1347.67,541.149C1359.32,545.869 1371.93,540.388 1387.37,541.068C1367.56,546.956 1352.05,558.07 1355.36,559.739C1362.15,563.156 1370.98,565.081 1376.43,566.838C1376.43,566.838 963.993,674.858 850.082,667.002C736.17,659.146 416.039,723.957 353.191,751.453C290.344,778.949 286.416,786.805 194.108,792.697C264.812,759.309 74.304,812.337 288.38,735.741Z" style="fill:white;"/>
                </g>
                <g transform="matrix(1.41376,-0.145049,0,1.41376,-154.68,-10.9667)">
                    <g>
                        <text x="392.471px" y="500.818px" style="font-family:'lazer84';font-size:144px;fill:none;stroke:rgb(242,13,175);stroke-width:5.08px;stroke-linecap:butt;stroke-miterlimit:1.41421;">Radical</text>
                        <text x="392.471px" y="500.818px" style="font-family:'lazer84';font-size:144px;fill:white;">Radical</text>
                    </g>
                </g>
                <g transform="matrix(1.41376,-0.145049,0,1.41376,-154.68,-10.9667)">
                    <text x="392.471px" y="500.818px" style="font-family:'lazer84';font-size:144px;fill:none;stroke:rgb(242,13,175);stroke-width:5.08px;stroke-linecap:butt;stroke-miterlimit:1.41421;">Radical</text>
                    <text x="392.471px" y="500.818px" style="font-family:'lazer84';font-size:144px;fill:white;">Radical</text>
                </g>
            </g>
            <g transform="matrix(1,0,0,1,262.254,320.53)">
                <g>
                    <text x="683.761px" y="618.095px" style="font-family:'SFAlienEncounters', 'SF Alien Encounters';font-size:144px;fill:rgb(13,242,201);">town</text>
                    <path d="M740.785,618.095L719.185,618.095L719.185,609.455L740.785,609.455L740.785,618.095ZM720.475,610.746L720.475,616.805L739.495,616.805L739.495,610.746L720.475,610.746ZM740.785,606.575L719.185,606.575L719.185,597.935L740.785,597.935L740.785,606.575ZM720.475,599.225L720.475,605.285L739.495,605.285L739.495,599.225L720.475,599.225ZM740.785,595.055L719.185,595.055L719.185,586.415L740.785,586.415L740.785,595.055ZM720.475,587.705L720.475,593.765L739.495,593.765L739.495,587.705L720.475,587.705ZM740.785,583.535L719.185,583.535L719.185,574.895L740.785,574.895L740.785,583.535ZM720.475,576.185L720.475,582.245L739.495,582.245L739.495,576.185L720.475,576.185ZM740.785,572.015L719.185,572.015L719.185,563.375L740.785,563.375L740.785,572.015ZM720.475,564.666L720.475,570.725L739.495,570.725L739.495,564.666L720.475,564.666ZM740.785,560.495L719.185,560.495L719.185,551.855L740.785,551.855L740.785,560.495ZM720.475,553.145L720.475,559.205L739.495,559.205L739.495,553.145L720.475,553.145ZM740.785,548.975L719.185,548.975L719.185,540.335L740.785,540.335L740.785,548.975ZM720.475,541.625L720.475,547.685L739.495,547.685L739.495,541.625L720.475,541.625ZM771.745,537.455L685.345,537.455L685.345,528.815L771.745,528.815L771.745,537.455ZM686.635,530.105L686.635,536.165L770.455,536.165L770.455,530.105L686.635,530.105ZM771.745,525.935L685.345,525.935L685.345,517.295L771.745,517.295L771.745,525.935ZM686.635,518.585L686.635,524.645L770.455,524.645L770.455,518.585L686.635,518.585Z" style="fill:rgb(13,202,242);"/>
                    <path d="M864.422,609.59L864.363,609.723L864.302,609.855L864.241,609.987L864.18,610.117L864.117,610.246L864.054,610.374L863.99,610.501L863.926,610.627L863.861,610.752L863.795,610.876L863.728,610.999L863.661,611.121L863.593,611.242L863.524,611.362L863.455,611.48L863.385,611.598L863.314,611.714L863.243,611.83L863.17,611.944L863.097,612.058L863.024,612.17L862.949,612.281L862.874,612.391L862.799,612.501L862.722,612.609L862.645,612.716L862.567,612.822L862.489,612.927L862.41,613.031L862.33,613.133L862.249,613.235L862.168,613.336L862.086,613.436L862.003,613.534L861.919,613.632L861.835,613.728L861.75,613.824L861.665,613.918L861.578,614.011L861.491,614.104L861.404,614.195L861.315,614.285L861.226,614.374L861.137,614.462L861.046,614.549L860.955,614.635L860.863,614.72L860.77,614.804L860.677,614.887L860.583,614.969L860.488,615.049L860.393,615.129L860.297,615.207L860.2,615.285L860.102,615.361L860.004,615.437L859.905,615.511L859.806,615.584L859.705,615.657L859.604,615.728L859.503,615.798L859.4,615.867L859.297,615.935L859.193,616.002L859.089,616.068L858.983,616.133L858.877,616.197L858.771,616.259L858.663,616.321L858.555,616.382L858.446,616.441L858.337,616.5L858.227,616.557L858.116,616.614L858.004,616.669L857.892,616.724L857.779,616.777L857.665,616.829L857.551,616.88L857.436,616.93L857.32,616.979L857.204,617.027L857.086,617.074L856.968,617.12L856.85,617.165L856.73,617.209L856.61,617.251L856.49,617.293L856.368,617.334L856.246,617.373L856.123,617.412L856,617.449L855.876,617.486L855.751,617.521L855.625,617.555L855.499,617.588L855.372,617.621L855.244,617.652L855.115,617.682L854.986,617.711L854.856,617.739L854.726,617.766L854.594,617.791L854.462,617.816L854.33,617.84L854.196,617.863L854.062,617.884L853.928,617.905L853.792,617.924L853.656,617.943L853.519,617.96L853.381,617.977L853.243,617.992L853.104,618.006L852.964,618.019L852.824,618.031L852.683,618.042L852.541,618.052L852.398,618.061L852.255,618.069L852.111,618.076L851.967,618.082L851.821,618.087L851.675,618.09L851.529,618.093L851.381,618.095L851.233,618.095L793.633,618.095L793.483,618.095L793.333,618.093L793.184,618.09L793.036,618.087L792.888,618.082L792.742,618.076L792.596,618.069L792.451,618.061L792.306,618.052L792.162,618.042L792.019,618.031L791.877,618.019L791.736,618.006L791.595,617.992L791.455,617.977L791.315,617.96L791.177,617.943L791.039,617.924L790.902,617.905L790.766,617.884L790.63,617.863L790.495,617.84L790.361,617.816L790.228,617.791L790.095,617.766L789.963,617.739L789.832,617.711L789.701,617.682L789.572,617.652L789.443,617.621L789.314,617.588L789.187,617.555L789.06,617.521L788.934,617.486L788.809,617.449L788.684,617.412L788.561,617.373L788.437,617.334L788.315,617.293L788.194,617.251L788.073,617.209L787.953,617.165L787.833,617.12L787.715,617.074L787.597,617.027L787.48,616.979L787.363,616.93L787.247,616.88L787.132,616.829L787.018,616.777L786.905,616.724L786.792,616.669L786.68,616.614L786.569,616.557L786.458,616.5L786.349,616.441L786.24,616.382L786.131,616.321L786.024,616.259L785.917,616.197L785.811,616.133L785.705,616.068L785.601,616.002L785.497,615.935L785.394,615.867L785.291,615.798L785.19,615.728L785.089,615.657L784.989,615.584L784.889,615.511L784.791,615.437L784.693,615.361L784.595,615.285L784.499,615.207L784.403,615.129L784.308,615.049L784.214,614.969L784.12,614.887L784.027,614.804L783.935,614.72L783.844,614.635L783.754,614.549L783.664,614.462L783.575,614.374L783.486,614.285L783.399,614.195L783.312,614.104L783.226,614.011L783.14,613.918L783.055,613.824L782.972,613.728L782.888,613.632L782.806,613.534L782.724,613.436L782.643,613.336L782.563,613.235L782.483,613.133L782.405,613.031L782.327,612.927L782.249,612.822L782.173,612.716L782.097,612.609L782.022,612.501L781.948,612.391L781.874,612.281L781.801,612.17L781.729,612.058L781.658,611.944L781.587,611.83L781.517,611.714L781.448,611.598L781.379,611.48L781.312,611.362L781.245,611.242L781.179,611.121L781.113,610.999L781.048,610.876L780.984,610.752L780.921,610.627L780.859,610.501L780.797,610.374L780.736,610.246L780.675,610.117L780.616,609.987L780.557,609.855L780.499,609.723L780.442,609.59L780.385,609.455L864.481,609.455L864.422,609.59ZM782.446,610.746L782.498,610.836L782.56,610.944L782.624,611.051L782.688,611.157L782.752,611.261L782.818,611.365L782.884,611.468L782.95,611.569L783.017,611.67L783.085,611.769L783.154,611.868L783.222,611.965L783.292,612.061L783.362,612.157L783.433,612.251L783.504,612.344L783.576,612.436L783.648,612.527L783.722,612.617L783.795,612.706L783.87,612.794L783.945,612.881L784.02,612.967L784.096,613.052L784.173,613.136L784.25,613.218L784.328,613.3L784.407,613.381L784.486,613.461L784.566,613.54L784.647,613.618L784.728,613.695L784.809,613.77L784.892,613.846L784.975,613.92L785.058,613.992L785.142,614.065L785.227,614.136L785.312,614.206L785.398,614.275L785.485,614.343L785.572,614.41L785.66,614.477L785.749,614.542L785.838,614.606L785.928,614.67L786.018,614.732L786.11,614.794L786.202,614.855L786.295,614.914L786.387,614.973L786.482,615.031L786.576,615.088L786.671,615.143L786.767,615.199L786.864,615.253L786.962,615.306L787.059,615.358L787.159,615.41L787.258,615.46L787.358,615.509L787.459,615.558L787.561,615.606L787.663,615.653L787.766,615.699L787.87,615.744L787.975,615.788L788.08,615.831L788.186,615.873L788.292,615.914L788.4,615.955L788.509,615.994L788.618,616.033L788.727,616.07L788.838,616.107L788.949,616.143L789.062,616.178L789.175,616.212L789.288,616.245L789.403,616.277L789.518,616.308L789.634,616.338L789.751,616.368L789.869,616.396L789.987,616.423L790.106,616.45L790.227,616.476L790.347,616.5L790.468,616.524L790.591,616.547L790.715,616.568L790.838,616.589L790.963,616.609L791.089,616.628L791.216,616.646L791.343,616.663L791.471,616.679L791.6,616.694L791.73,616.709L791.861,616.722L791.992,616.734L792.124,616.745L792.257,616.756L792.391,616.765L792.526,616.773L792.661,616.781L792.797,616.787L792.935,616.792L793.073,616.797L793.211,616.8L793.351,616.803L793.492,616.804L793.635,616.805L851.231,616.805L851.372,616.804L851.51,616.803L851.647,616.8L851.784,616.797L851.92,616.792L852.055,616.787L852.189,616.781L852.322,616.773L852.455,616.765L852.587,616.756L852.718,616.745L852.848,616.734L852.977,616.722L853.106,616.709L853.235,616.695L853.362,616.679L853.488,616.663L853.613,616.646L853.738,616.628L853.863,616.609L853.986,616.59L854.108,616.569L854.23,616.547L854.351,616.524L854.471,616.501L854.59,616.476L854.709,616.45L854.827,616.424L854.944,616.397L855.061,616.368L855.176,616.339L855.291,616.309L855.405,616.278L855.519,616.246L855.631,616.213L855.743,616.179L855.855,616.144L855.965,616.108L856.075,616.071L856.183,616.034L856.292,615.995L856.399,615.956L856.507,615.915L856.613,615.874L856.718,615.832L856.822,615.789L856.927,615.745L857.03,615.699L857.133,615.654L857.235,615.607L857.336,615.559L857.437,615.51L857.536,615.461L857.636,615.411L857.734,615.359L857.832,615.307L857.929,615.253L858.026,615.199L858.122,615.144L858.217,615.088L858.312,615.031L858.406,614.973L858.499,614.914L858.592,614.854L858.684,614.794L858.776,614.732L858.867,614.669L858.957,614.606L859.046,614.541L859.135,614.476L859.224,614.409L859.312,614.342L859.398,614.274L859.485,614.204L859.571,614.134L859.657,614.063L859.741,613.991L859.825,613.917L859.909,613.843L859.992,613.768L860.074,613.692L860.156,613.615L860.238,613.537L860.318,613.458L860.398,613.377L860.478,613.296L860.557,613.214L860.635,613.131L860.713,613.047L860.79,612.962L860.867,612.876L860.943,612.788L861.018,612.7L861.093,612.611L861.168,612.52L861.241,612.429L861.314,612.337L861.387,612.243L861.459,612.149L861.531,612.053L861.601,611.957L861.672,611.859L861.742,611.76L861.811,611.661L861.88,611.56L861.948,611.458L862.015,611.355L862.082,611.251L862.148,611.146L862.214,611.04L862.279,610.932L862.344,610.824L862.39,610.746L782.446,610.746ZM865.633,603.695L865.632,603.819L865.631,603.938L865.628,604.053L865.624,604.163L865.619,604.269L865.613,604.37L865.605,604.467L865.597,604.559L865.587,604.647L865.577,604.73L865.565,604.809L865.552,604.883L865.538,604.953L865.523,605.018L865.506,605.079L865.489,605.135L865.488,605.208L865.484,605.284L865.479,605.361L865.471,605.441L865.461,605.523L865.448,605.608L865.434,605.694L865.417,605.783L865.408,605.828L865.4,605.874L865.392,605.921L865.385,605.968L865.373,606.063L865.363,606.161L865.355,606.261L865.349,606.364L865.346,606.468L865.345,606.575L779.521,606.575L779.52,606.468L779.516,606.364L779.511,606.261L779.503,606.161L779.493,606.063L779.48,605.968L779.473,605.921L779.466,605.874L779.458,605.828L779.449,605.783L779.432,605.694L779.417,605.608L779.405,605.523L779.395,605.441L779.387,605.361L779.381,605.284L779.378,605.208L779.377,605.135L779.359,605.079L779.343,605.018L779.328,604.953L779.314,604.883L779.301,604.809L779.289,604.73L779.278,604.647L779.269,604.559L779.26,604.467L779.253,604.37L779.247,604.269L779.242,604.163L779.238,604.053L779.235,603.938L779.233,603.819L779.233,603.695L779.233,597.935L865.633,597.935L865.633,603.695ZM780.523,599.225L780.523,603.692L780.524,603.807L780.525,603.913L780.528,604.014L780.531,604.109L780.535,604.199L780.541,604.282L780.546,604.36L780.553,604.43L780.56,604.494L780.567,604.552L780.575,604.603L780.582,604.645L780.589,604.679L780.595,604.705L780.599,604.72L780.609,604.752L780.651,604.932L780.667,605.116L780.668,605.17L780.67,605.208L780.673,605.252L780.676,605.285L864.19,605.285L864.193,605.252L864.196,605.208L864.198,605.169L864.199,605.114L864.215,604.932L864.256,604.754L864.267,604.721L864.271,604.705L864.277,604.679L864.284,604.645L864.291,604.603L864.299,604.552L864.306,604.495L864.313,604.431L864.319,604.36L864.325,604.282L864.33,604.199L864.335,604.109L864.338,604.014L864.341,603.913L864.342,603.807L864.343,603.692L864.343,599.225L780.523,599.225ZM800.833,595.055L779.233,595.055L779.233,586.415L800.833,586.415L800.833,595.055ZM865.633,595.055L844.033,595.055L844.033,586.415L865.633,586.415L865.633,595.055ZM845.323,587.705L845.323,593.765L864.343,593.765L864.343,587.705L845.323,587.705ZM780.523,587.705L780.523,593.765L799.543,593.765L799.543,587.705L780.523,587.705ZM800.833,583.535L779.233,583.535L779.233,574.895L800.833,574.895L800.833,583.535ZM865.633,583.535L844.033,583.535L844.033,574.895L865.633,574.895L865.633,583.535ZM845.323,576.185L845.323,582.245L864.343,582.245L864.343,576.185L845.323,576.185ZM780.523,576.185L780.523,582.245L799.543,582.245L799.543,576.185L780.523,576.185ZM865.633,572.015L844.033,572.015L844.033,563.375L865.633,563.375L865.633,572.015ZM800.833,572.015L779.233,572.015L779.233,563.375L800.833,563.375L800.833,572.015ZM780.523,564.666L780.523,570.725L799.543,570.725L799.543,564.666L780.523,564.666ZM845.323,564.666L845.323,570.725L864.343,570.725L864.343,564.666L845.323,564.666ZM865.633,560.495L844.033,560.495L844.033,551.855L865.633,551.855L865.633,560.495ZM800.833,560.495L779.233,560.495L779.233,551.855L800.833,551.855L800.833,560.495ZM780.523,553.145L780.523,559.205L799.543,559.205L799.543,553.145L780.523,553.145ZM845.323,553.145L845.323,559.205L864.343,559.205L864.343,553.145L845.323,553.145ZM865.633,548.975L844.033,548.975L844.033,540.335L865.633,540.335L865.633,548.975ZM800.833,548.975L779.233,548.975L779.233,540.335L800.833,540.335L800.833,548.975ZM780.523,541.625L780.523,547.685L799.543,547.685L799.543,541.625L780.523,541.625ZM845.323,541.625L845.323,547.685L864.343,547.685L864.343,541.625L845.323,541.625ZM865.346,528.922L865.349,529.027L865.355,529.129L865.363,529.229L865.373,529.327L865.385,529.423L865.392,529.47L865.4,529.516L865.408,529.562L865.417,529.607L865.434,529.696L865.448,529.783L865.461,529.867L865.471,529.949L865.479,530.029L865.484,530.107L865.488,530.182L865.489,530.255L865.506,530.311L865.523,530.372L865.538,530.437L865.552,530.507L865.565,530.581L865.577,530.66L865.587,530.743L865.597,530.831L865.605,530.923L865.613,531.02L865.619,531.121L865.624,531.227L865.628,531.337L865.631,531.452L865.632,531.571L865.633,531.695L865.633,537.455L779.233,537.455L779.233,531.695L779.233,531.571L779.235,531.452L779.238,531.337L779.242,531.227L779.247,531.121L779.253,531.02L779.26,530.923L779.269,530.831L779.278,530.743L779.289,530.66L779.301,530.581L779.314,530.507L779.328,530.437L779.343,530.372L779.359,530.311L779.377,530.255L779.378,530.182L779.381,530.107L779.387,530.029L779.395,529.949L779.405,529.867L779.417,529.783L779.432,529.696L779.449,529.607L779.458,529.562L779.466,529.516L779.473,529.47L779.48,529.423L779.493,529.327L779.503,529.229L779.511,529.129L779.516,529.027L779.52,528.922L779.521,528.815L865.345,528.815L865.346,528.922ZM780.676,530.105L780.673,530.139L780.67,530.182L780.668,530.221L780.667,530.275L780.651,530.458L780.609,530.638L780.599,530.67L780.595,530.686L780.589,530.711L780.582,530.745L780.575,530.788L780.567,530.838L780.56,530.896L780.553,530.96L780.546,531.031L780.541,531.108L780.535,531.191L780.531,531.281L780.528,531.376L780.525,531.477L780.524,531.584L780.523,531.698L780.523,536.165L864.343,536.165L864.343,531.698L864.342,531.583L864.341,531.477L864.338,531.376L864.335,531.281L864.33,531.192L864.325,531.108L864.319,531.031L864.313,530.959L864.306,530.895L864.299,530.838L864.291,530.788L864.284,530.746L864.277,530.712L864.271,530.686L864.266,530.669L864.256,530.636L864.215,530.458L864.199,530.276L864.198,530.221L864.196,530.182L864.193,530.139L864.19,530.105L780.676,530.105ZM851.381,517.296L851.529,517.297L851.675,517.3L851.821,517.304L851.967,517.308L852.111,517.314L852.255,517.321L852.398,517.329L852.541,517.338L852.683,517.348L852.824,517.359L852.964,517.371L853.104,517.384L853.243,517.399L853.381,517.414L853.519,517.43L853.656,517.448L853.792,517.466L853.928,517.486L854.062,517.506L854.196,517.528L854.33,517.55L854.462,517.574L854.594,517.599L854.726,517.625L854.856,517.652L854.986,517.68L855.115,517.709L855.244,517.739L855.372,517.77L855.499,517.802L855.625,517.835L855.751,517.869L855.876,517.905L856,517.941L856.123,517.979L856.246,518.017L856.368,518.057L856.49,518.097L856.61,518.139L856.73,518.182L856.85,518.225L856.968,518.27L857.086,518.316L857.204,518.363L857.32,518.411L857.436,518.46L857.551,518.51L857.665,518.561L857.779,518.614L857.892,518.667L858.004,518.721L858.116,518.776L858.227,518.833L858.337,518.89L858.446,518.949L858.555,519.008L858.663,519.069L858.771,519.131L858.877,519.194L858.983,519.257L859.089,519.322L859.193,519.388L859.297,519.455L859.4,519.523L859.503,519.592L859.604,519.662L859.705,519.734L859.806,519.806L859.905,519.879L860.004,519.953L860.102,520.029L860.2,520.105L860.297,520.183L860.393,520.261L860.488,520.341L860.583,520.422L860.677,520.504L860.77,520.586L860.863,520.67L860.955,520.755L861.046,520.841L861.137,520.928L861.226,521.016L861.315,521.105L861.404,521.195L861.491,521.287L861.578,521.379L861.665,521.472L861.75,521.567L861.835,521.662L861.919,521.759L862.003,521.856L862.086,521.955L862.168,522.054L862.249,522.155L862.33,522.257L862.41,522.36L862.489,522.464L862.567,522.569L862.645,522.675L862.722,522.782L862.799,522.89L862.874,522.999L862.949,523.109L863.024,523.22L863.097,523.333L863.17,523.446L863.243,523.561L863.314,523.676L863.385,523.793L863.455,523.91L863.524,524.029L863.593,524.149L863.661,524.269L863.728,524.391L863.795,524.514L863.861,524.638L863.926,524.763L863.99,524.889L864.054,525.016L864.117,525.144L864.18,525.273L864.241,525.404L864.302,525.535L864.363,525.667L864.422,525.801L864.481,525.935L780.385,525.935L780.442,525.801L780.499,525.667L780.557,525.535L780.616,525.404L780.675,525.273L780.736,525.144L780.797,525.016L780.859,524.889L780.921,524.763L780.984,524.638L781.048,524.514L781.113,524.391L781.179,524.269L781.245,524.149L781.312,524.029L781.379,523.91L781.448,523.793L781.517,523.676L781.587,523.561L781.658,523.446L781.729,523.333L781.801,523.22L781.874,523.109L781.948,522.999L782.022,522.89L782.097,522.782L782.173,522.675L782.249,522.569L782.327,522.464L782.405,522.36L782.483,522.257L782.563,522.155L782.643,522.054L782.724,521.955L782.806,521.856L782.888,521.759L782.972,521.662L783.055,521.567L783.14,521.472L783.226,521.379L783.312,521.287L783.399,521.195L783.486,521.105L783.575,521.016L783.664,520.928L783.754,520.841L783.844,520.755L783.935,520.67L784.027,520.586L784.12,520.504L784.214,520.422L784.308,520.341L784.403,520.261L784.499,520.183L784.595,520.105L784.693,520.029L784.791,519.953L784.889,519.879L784.989,519.806L785.089,519.734L785.19,519.662L785.291,519.592L785.394,519.523L785.497,519.455L785.601,519.388L785.705,519.322L785.811,519.257L785.917,519.194L786.024,519.131L786.131,519.069L786.24,519.008L786.349,518.949L786.458,518.89L786.569,518.833L786.68,518.776L786.792,518.721L786.905,518.667L787.018,518.614L787.132,518.561L787.247,518.51L787.363,518.46L787.48,518.411L787.597,518.363L787.715,518.316L787.833,518.27L787.953,518.225L788.073,518.182L788.194,518.139L788.315,518.097L788.437,518.057L788.561,518.017L788.684,517.979L788.809,517.941L788.934,517.905L789.06,517.869L789.187,517.835L789.314,517.802L789.443,517.77L789.572,517.739L789.701,517.709L789.832,517.68L789.963,517.652L790.095,517.625L790.228,517.599L790.361,517.574L790.495,517.55L790.63,517.528L790.766,517.506L790.902,517.486L791.039,517.466L791.177,517.448L791.315,517.43L791.455,517.414L791.595,517.399L791.736,517.384L791.877,517.371L792.019,517.359L792.162,517.348L792.306,517.338L792.451,517.329L792.596,517.321L792.742,517.314L792.888,517.308L793.036,517.304L793.184,517.3L793.333,517.297L793.483,517.296L793.633,517.295L851.233,517.295L851.381,517.296ZM793.635,518.585L793.492,518.586L793.351,518.587L793.212,518.59L793.073,518.593L792.935,518.598L792.798,518.603L792.661,518.61L792.526,518.617L792.391,518.625L792.257,518.635L792.124,518.645L791.992,518.656L791.86,518.669L791.73,518.682L791.6,518.696L791.471,518.711L791.343,518.727L791.216,518.744L791.089,518.762L790.964,518.781L790.839,518.801L790.714,518.822L790.591,518.844L790.469,518.866L790.347,518.89L790.226,518.915L790.106,518.94L789.987,518.967L789.869,518.994L789.751,519.023L789.634,519.052L789.518,519.082L789.403,519.113L789.288,519.146L789.175,519.179L789.061,519.213L788.949,519.247L788.838,519.283L788.728,519.32L788.618,519.358L788.509,519.396L788.4,519.436L788.293,519.476L788.186,519.517L788.08,519.559L787.975,519.603L787.87,519.647L787.766,519.692L787.663,519.738L787.561,519.784L787.459,519.832L787.358,519.881L787.258,519.93L787.158,519.981L787.06,520.032L786.962,520.084L786.864,520.138L786.767,520.192L786.671,520.247L786.576,520.303L786.482,520.36L786.388,520.417L786.294,520.476L786.202,520.536L786.11,520.597L786.018,520.658L785.928,520.721L785.838,520.784L785.749,520.848L785.66,520.914L785.572,520.98L785.485,521.047L785.398,521.115L785.312,521.185L785.227,521.255L785.142,521.326L785.058,521.398L784.974,521.471L784.892,521.545L784.809,521.62L784.727,521.696L784.647,521.772L784.566,521.85L784.486,521.929L784.407,522.009L784.329,522.09L784.25,522.172L784.173,522.255L784.096,522.339L784.02,522.423L783.945,522.509L783.87,522.597L783.795,522.684L783.722,522.773L783.649,522.863L783.576,522.954L783.504,523.046L783.433,523.14L783.362,523.234L783.292,523.329L783.222,523.425L783.153,523.523L783.085,523.621L783.017,523.72L782.95,523.821L782.884,523.922L782.818,524.025L782.753,524.129L782.688,524.234L782.624,524.339L782.56,524.446L782.498,524.554L782.446,524.645L862.39,524.645L862.344,524.566L862.279,524.458L862.214,524.351L862.148,524.244L862.082,524.139L862.015,524.035L861.948,523.933L861.88,523.83L861.811,523.73L861.742,523.63L861.672,523.531L861.601,523.433L861.531,523.337L861.459,523.242L861.387,523.147L861.314,523.053L861.241,522.961L861.168,522.87L861.093,522.78L861.018,522.69L860.943,522.602L860.867,522.515L860.79,522.429L860.713,522.344L860.635,522.259L860.557,522.176L860.478,522.094L860.398,522.013L860.318,521.933L860.237,521.854L860.156,521.776L860.075,521.698L859.992,521.622L859.909,521.547L859.826,521.473L859.741,521.4L859.656,521.327L859.571,521.256L859.485,521.186L859.398,521.117L859.312,521.048L859.224,520.981L859.135,520.915L859.046,520.849L858.957,520.785L858.867,520.721L858.776,520.658L858.684,520.597L858.592,520.536L858.499,520.476L858.406,520.417L858.312,520.359L858.217,520.302L858.122,520.246L858.026,520.191L857.93,520.137L857.832,520.084L857.734,520.031L857.636,519.98L857.537,519.929L857.437,519.88L857.336,519.831L857.235,519.784L857.133,519.737L857.03,519.691L856.927,519.646L856.823,519.602L856.718,519.558L856.613,519.516L856.507,519.475L856.399,519.435L856.292,519.395L856.184,519.357L856.075,519.319L855.965,519.282L855.855,519.247L855.743,519.212L855.631,519.178L855.519,519.145L855.405,519.113L855.291,519.082L855.176,519.051L855.061,519.022L854.944,518.994L854.827,518.966L854.709,518.94L854.59,518.914L854.471,518.89L854.351,518.866L854.23,518.843L854.108,518.822L853.986,518.801L853.862,518.781L853.738,518.762L853.613,518.744L853.488,518.727L853.362,518.711L853.234,518.696L853.106,518.682L852.978,518.668L852.848,518.656L852.718,518.645L852.587,518.635L852.455,518.625L852.322,518.617L852.189,518.61L852.055,518.603L851.92,518.598L851.784,518.593L851.647,518.59L851.51,518.587L851.372,518.586L851.231,518.585L793.635,518.585Z" style="fill:rgb(13,202,242);"/>
                    <path d="M985.441,618.095L958.081,618.095L954.625,609.455L988.897,609.455L985.441,618.095ZM942.241,618.095L914.881,618.095L911.425,609.455L945.697,609.455L942.241,618.095ZM913.331,610.745L915.755,616.805L941.367,616.805L943.791,610.745L913.331,610.745ZM956.531,610.745L958.955,616.805L984.567,616.805L986.991,610.745L956.531,610.745ZM990.049,606.575L953.473,606.575L950.161,598.223L946.849,606.575L910.273,606.575L906.817,597.935L993.505,597.935L990.049,606.575ZM951.946,599.225L954.349,605.285L989.175,605.285L991.599,599.225L951.946,599.225ZM908.723,599.225L911.147,605.285L945.973,605.285L948.375,599.225L908.723,599.225ZM928.561,591.167L930.433,586.415L969.889,586.415L971.761,591.167L973.633,586.415L998.113,586.415L994.657,595.055L905.665,595.055L902.209,586.415L926.689,586.415L928.561,591.167ZM904.115,587.705L906.539,593.765L993.783,593.765L996.207,587.705L974.511,587.705L972.962,591.64L972.844,591.868L972.684,592.069L972.487,592.234L972.262,592.356L972.016,592.432L971.761,592.457L971.506,592.432L971.26,592.356L971.035,592.234L970.838,592.069L970.678,591.868L970.56,591.64L969.01,587.705L931.311,587.705L929.761,591.64L929.644,591.868L929.484,592.069L929.287,592.234L929.062,592.356L928.816,592.432L928.561,592.457L928.305,592.432L928.06,592.356L927.835,592.234L927.638,592.069L927.478,591.868L927.36,591.64L925.81,587.705L904.115,587.705ZM925.537,583.535L901.057,583.535L897.601,574.895L922.081,574.895L925.537,583.535ZM968.737,583.535L931.585,583.535L935.041,574.895L965.281,574.895L968.737,583.535ZM999.265,583.535L974.785,583.535L978.241,574.895L1002.72,574.895L999.265,583.535ZM979.115,576.185L976.691,582.245L998.391,582.245L1000.82,576.185L979.115,576.185ZM935.914,576.185L933.491,582.245L966.831,582.245L964.407,576.185L935.914,576.185ZM899.507,576.185L901.931,582.245L923.631,582.245L921.207,576.185L899.507,576.185ZM962.401,567.695L964.129,572.015L936.193,572.015L937.921,567.695L936.193,563.375L964.129,563.375L962.401,567.695ZM920.929,572.015L896.449,572.015L892.993,563.375L917.473,563.375L920.929,572.015ZM1003.87,572.015L979.393,572.015L982.849,563.375L1007.33,563.375L1003.87,572.015ZM983.723,564.666L981.299,570.725L1003,570.725L1005.42,564.666L983.723,564.666ZM938.099,564.666L939.119,567.216L939.188,567.451L939.211,567.695L939.188,567.939L939.119,568.174L938.099,570.725L962.223,570.725L961.203,568.174L961.134,567.939L961.111,567.695L961.134,567.451L961.203,567.216L962.223,564.666L938.099,564.666ZM894.899,564.666L897.323,570.725L919.023,570.725L916.599,564.666L894.899,564.666ZM916.321,560.495L891.841,560.495L888.385,551.855L912.865,551.855L916.321,560.495ZM965.281,560.495L935.041,560.495L931.585,551.855L968.737,551.855L965.281,560.495ZM1008.48,560.495L984.001,560.495L987.457,551.855L1011.94,551.855L1008.48,560.495ZM933.491,553.145L935.914,559.205L964.407,559.205L966.831,553.145L933.491,553.145ZM890.291,553.145L892.715,559.205L914.415,559.205L911.991,553.145L890.291,553.145ZM988.331,553.145L985.907,559.205L1007.61,559.205L1010.03,553.145L988.331,553.145ZM1013.09,548.975L988.609,548.975L992.065,540.335L1016.55,540.335L1013.09,548.975ZM969.889,548.975L930.433,548.975L926.977,540.335L973.345,540.335L969.889,548.975ZM911.713,548.975L887.233,548.975L883.777,540.335L908.257,540.335L911.713,548.975ZM992.938,541.625L990.515,547.685L1012.22,547.685L1014.64,541.625L992.938,541.625ZM885.683,541.625L888.107,547.685L909.807,547.685L907.383,541.625L885.683,541.625ZM928.883,541.625L931.307,547.685L969.015,547.685L971.439,541.625L928.883,541.625ZM907.105,537.455L882.625,537.455L879.169,528.815L903.649,528.815L907.105,537.455ZM950.161,537.023L953.473,528.815L977.953,528.815L974.497,537.455L925.825,537.455L922.369,528.815L946.849,528.815L950.161,537.023ZM1017.7,537.455L993.217,537.455L996.673,528.815L1021.15,528.815L1017.7,537.455ZM924.275,530.105L926.698,536.165L948.423,536.165L945.978,530.105L924.275,530.105ZM997.547,530.105L995.123,536.165L1016.82,536.165L1019.25,530.105L997.547,530.105ZM954.344,530.105L951.899,536.165L973.623,536.165L976.047,530.105L954.344,530.105ZM881.075,530.105L883.499,536.165L905.199,536.165L902.775,530.105L881.075,530.105ZM902.497,525.935L878.017,525.935L874.561,517.295L899.041,517.295L902.497,525.935ZM945.697,525.935L921.217,525.935L917.761,517.295L942.241,517.295L945.697,525.935ZM979.105,525.935L954.625,525.935L958.081,517.295L982.561,517.295L979.105,525.935ZM1022.31,525.935L997.825,525.935L1001.28,517.295L1025.76,517.295L1022.31,525.935ZM919.667,518.585L922.091,524.645L943.791,524.645L941.367,518.585L919.667,518.585ZM876.467,518.585L878.891,524.645L900.591,524.645L898.167,518.585L876.467,518.585ZM1002.15,518.585L999.731,524.645L1021.43,524.645L1023.86,518.585L1002.15,518.585ZM958.955,518.585L956.531,524.645L978.231,524.645L980.655,518.585L958.955,518.585Z" style="fill:rgb(13,202,242);"/>
                    <path d="M1056.58,618.095L1034.98,618.095L1034.98,609.455L1056.58,609.455L1056.58,618.095ZM1121.38,618.095L1099.78,618.095L1093.59,609.455L1121.38,609.455L1121.38,618.095ZM1036.27,610.746L1036.27,616.805L1055.29,616.805L1055.29,610.746L1036.27,610.746ZM1096.1,610.746L1100.44,616.805L1120.09,616.805L1120.09,610.746L1096.1,610.746ZM1056.58,606.575L1034.98,606.575L1034.98,597.935L1056.58,597.935L1056.58,606.575ZM1121.38,606.575L1091.57,606.575L1085.38,597.935L1121.38,597.935L1121.38,606.575ZM1087.89,599.225L1092.23,605.285L1120.09,605.285L1120.09,599.225L1087.89,599.225ZM1036.27,599.225L1036.27,605.285L1055.29,605.285L1055.29,599.225L1036.27,599.225ZM1056.58,595.055L1034.98,595.055L1034.98,586.415L1056.58,586.415L1056.58,595.055ZM1121.38,595.055L1083.36,595.055L1077.17,586.415L1121.38,586.415L1121.38,595.055ZM1036.27,587.705L1036.27,593.765L1055.29,593.765L1055.29,587.705L1036.27,587.705ZM1079.68,587.705L1084.02,593.765L1120.09,593.765L1120.09,587.705L1079.68,587.705ZM1056.58,583.535L1034.98,583.535L1034.98,574.895L1056.58,574.895L1056.58,583.535ZM1099.78,577.775L1099.78,574.895L1121.38,574.895L1121.38,583.535L1075.15,583.535L1068.96,574.895L1097.76,574.895L1099.78,577.775ZM1036.27,576.185L1036.27,582.245L1055.29,582.245L1055.29,576.185L1036.27,576.185ZM1071.47,576.185L1075.82,582.245L1120.09,582.245L1120.09,576.185L1101.07,576.185L1101.07,577.775L1101.05,577.992L1100.99,578.202L1100.9,578.401L1100.78,578.581L1100.63,578.739L1100.46,578.869L1100.27,578.969L1100.06,579.034L1099.84,579.064L1099.63,579.057L1099.41,579.013L1099.21,578.935L1099.02,578.823L1098.86,578.682L1098.72,578.515L1097.09,576.185L1071.47,576.185ZM1056.58,572.015L1034.98,572.015L1034.98,563.375L1056.58,563.375L1056.58,572.015ZM1095.6,572.015L1066.8,572.015L1060.75,563.375L1089.55,563.375L1095.6,572.015ZM1121.38,572.015L1099.78,572.015L1099.78,563.375L1121.38,563.375L1121.38,572.015ZM1036.27,564.666L1036.27,570.725L1055.29,570.725L1055.29,564.666L1036.27,564.666ZM1101.07,564.666L1101.07,570.725L1120.09,570.725L1120.09,564.666L1101.07,564.666ZM1063.23,564.666L1067.47,570.725L1093.12,570.725L1088.88,564.666L1063.23,564.666ZM1121.38,560.495L1099.78,560.495L1099.78,551.855L1121.38,551.855L1121.38,560.495ZM1087.39,560.495L1058.59,560.495L1056.58,557.615L1056.58,560.495L1034.98,560.495L1034.98,551.855L1081.2,551.855L1087.39,560.495ZM1036.27,553.145L1036.27,559.205L1055.29,559.205L1055.29,557.615L1055.31,557.398L1055.36,557.188L1055.45,556.99L1055.57,556.809L1055.72,556.651L1055.89,556.521L1056.09,556.422L1056.29,556.356L1056.51,556.327L1056.73,556.334L1056.94,556.377L1057.14,556.455L1057.33,556.567L1057.5,556.708L1057.63,556.875L1059.27,559.205L1084.88,559.205L1080.54,553.145L1036.27,553.145ZM1101.07,553.145L1101.07,559.205L1120.09,559.205L1120.09,553.145L1101.07,553.145ZM1121.38,548.975L1099.78,548.975L1099.78,540.335L1121.38,540.335L1121.38,548.975ZM1079.18,548.975L1034.98,548.975L1034.98,540.335L1072.99,540.335L1079.18,548.975ZM1101.07,541.625L1101.07,547.685L1120.09,547.685L1120.09,541.625L1101.07,541.625ZM1036.27,541.625L1036.27,547.685L1076.67,547.685L1072.33,541.625L1036.27,541.625ZM1070.98,537.455L1034.98,537.455L1034.98,528.815L1064.79,528.815L1070.98,537.455ZM1121.38,537.455L1099.78,537.455L1099.78,528.815L1121.38,528.815L1121.38,537.455ZM1101.07,530.105L1101.07,536.165L1120.09,536.165L1120.09,530.105L1101.07,530.105ZM1036.27,530.105L1036.27,536.165L1068.46,536.165L1064.12,530.105L1036.27,530.105ZM1062.77,525.935L1034.98,525.935L1034.98,517.295L1056.58,517.295L1062.77,525.935ZM1121.38,525.935L1099.78,525.935L1099.78,517.295L1121.38,517.295L1121.38,525.935ZM1101.07,518.585L1101.07,524.645L1120.09,524.645L1120.09,518.585L1101.07,518.585ZM1036.27,518.585L1036.27,524.645L1060.26,524.645L1055.91,518.585L1036.27,518.585Z" style="fill:rgb(13,202,242);"/>
                </g>
            </g>
            <g transform="matrix(1,0,0,1,262.254,320.53)">
                <text x="683.761px" y="618.095px" style="font-family:'SFAlienEncounters', 'SF Alien Encounters';font-size:144px;fill:rgb(13,242,201);">town</text>
                <path d="M740.785,618.095L719.185,618.095L719.185,609.455L740.785,609.455L740.785,618.095ZM720.475,610.746L720.475,616.805L739.495,616.805L739.495,610.746L720.475,610.746ZM740.785,606.575L719.185,606.575L719.185,597.935L740.785,597.935L740.785,606.575ZM720.475,599.225L720.475,605.285L739.495,605.285L739.495,599.225L720.475,599.225ZM740.785,595.055L719.185,595.055L719.185,586.415L740.785,586.415L740.785,595.055ZM720.475,587.705L720.475,593.765L739.495,593.765L739.495,587.705L720.475,587.705ZM740.785,583.535L719.185,583.535L719.185,574.895L740.785,574.895L740.785,583.535ZM720.475,576.185L720.475,582.245L739.495,582.245L739.495,576.185L720.475,576.185ZM740.785,572.015L719.185,572.015L719.185,563.375L740.785,563.375L740.785,572.015ZM720.475,564.666L720.475,570.725L739.495,570.725L739.495,564.666L720.475,564.666ZM740.785,560.495L719.185,560.495L719.185,551.855L740.785,551.855L740.785,560.495ZM720.475,553.145L720.475,559.205L739.495,559.205L739.495,553.145L720.475,553.145ZM740.785,548.975L719.185,548.975L719.185,540.335L740.785,540.335L740.785,548.975ZM720.475,541.625L720.475,547.685L739.495,547.685L739.495,541.625L720.475,541.625ZM771.745,537.455L685.345,537.455L685.345,528.815L771.745,528.815L771.745,537.455ZM686.635,530.105L686.635,536.165L770.455,536.165L770.455,530.105L686.635,530.105ZM771.745,525.935L685.345,525.935L685.345,517.295L771.745,517.295L771.745,525.935ZM686.635,518.585L686.635,524.645L770.455,524.645L770.455,518.585L686.635,518.585Z" style="fill:rgb(13,202,242);"/>
                <path d="M864.422,609.59L864.363,609.723L864.302,609.855L864.241,609.987L864.18,610.117L864.117,610.246L864.054,610.374L863.99,610.501L863.926,610.627L863.861,610.752L863.795,610.876L863.728,610.999L863.661,611.121L863.593,611.242L863.524,611.362L863.455,611.48L863.385,611.598L863.314,611.714L863.243,611.83L863.17,611.944L863.097,612.058L863.024,612.17L862.949,612.281L862.874,612.391L862.799,612.501L862.722,612.609L862.645,612.716L862.567,612.822L862.489,612.927L862.41,613.031L862.33,613.133L862.249,613.235L862.168,613.336L862.086,613.436L862.003,613.534L861.919,613.632L861.835,613.728L861.75,613.824L861.665,613.918L861.578,614.011L861.491,614.104L861.404,614.195L861.315,614.285L861.226,614.374L861.137,614.462L861.046,614.549L860.955,614.635L860.863,614.72L860.77,614.804L860.677,614.887L860.583,614.969L860.488,615.049L860.393,615.129L860.297,615.207L860.2,615.285L860.102,615.361L860.004,615.437L859.905,615.511L859.806,615.584L859.705,615.657L859.604,615.728L859.503,615.798L859.4,615.867L859.297,615.935L859.193,616.002L859.089,616.068L858.983,616.133L858.877,616.197L858.771,616.259L858.663,616.321L858.555,616.382L858.446,616.441L858.337,616.5L858.227,616.557L858.116,616.614L858.004,616.669L857.892,616.724L857.779,616.777L857.665,616.829L857.551,616.88L857.436,616.93L857.32,616.979L857.204,617.027L857.086,617.074L856.968,617.12L856.85,617.165L856.73,617.209L856.61,617.251L856.49,617.293L856.368,617.334L856.246,617.373L856.123,617.412L856,617.449L855.876,617.486L855.751,617.521L855.625,617.555L855.499,617.588L855.372,617.621L855.244,617.652L855.115,617.682L854.986,617.711L854.856,617.739L854.726,617.766L854.594,617.791L854.462,617.816L854.33,617.84L854.196,617.863L854.062,617.884L853.928,617.905L853.792,617.924L853.656,617.943L853.519,617.96L853.381,617.977L853.243,617.992L853.104,618.006L852.964,618.019L852.824,618.031L852.683,618.042L852.541,618.052L852.398,618.061L852.255,618.069L852.111,618.076L851.967,618.082L851.821,618.087L851.675,618.09L851.529,618.093L851.381,618.095L851.233,618.095L793.633,618.095L793.483,618.095L793.333,618.093L793.184,618.09L793.036,618.087L792.888,618.082L792.742,618.076L792.596,618.069L792.451,618.061L792.306,618.052L792.162,618.042L792.019,618.031L791.877,618.019L791.736,618.006L791.595,617.992L791.455,617.977L791.315,617.96L791.177,617.943L791.039,617.924L790.902,617.905L790.766,617.884L790.63,617.863L790.495,617.84L790.361,617.816L790.228,617.791L790.095,617.766L789.963,617.739L789.832,617.711L789.701,617.682L789.572,617.652L789.443,617.621L789.314,617.588L789.187,617.555L789.06,617.521L788.934,617.486L788.809,617.449L788.684,617.412L788.561,617.373L788.437,617.334L788.315,617.293L788.194,617.251L788.073,617.209L787.953,617.165L787.833,617.12L787.715,617.074L787.597,617.027L787.48,616.979L787.363,616.93L787.247,616.88L787.132,616.829L787.018,616.777L786.905,616.724L786.792,616.669L786.68,616.614L786.569,616.557L786.458,616.5L786.349,616.441L786.24,616.382L786.131,616.321L786.024,616.259L785.917,616.197L785.811,616.133L785.705,616.068L785.601,616.002L785.497,615.935L785.394,615.867L785.291,615.798L785.19,615.728L785.089,615.657L784.989,615.584L784.889,615.511L784.791,615.437L784.693,615.361L784.595,615.285L784.499,615.207L784.403,615.129L784.308,615.049L784.214,614.969L784.12,614.887L784.027,614.804L783.935,614.72L783.844,614.635L783.754,614.549L783.664,614.462L783.575,614.374L783.486,614.285L783.399,614.195L783.312,614.104L783.226,614.011L783.14,613.918L783.055,613.824L782.972,613.728L782.888,613.632L782.806,613.534L782.724,613.436L782.643,613.336L782.563,613.235L782.483,613.133L782.405,613.031L782.327,612.927L782.249,612.822L782.173,612.716L782.097,612.609L782.022,612.501L781.948,612.391L781.874,612.281L781.801,612.17L781.729,612.058L781.658,611.944L781.587,611.83L781.517,611.714L781.448,611.598L781.379,611.48L781.312,611.362L781.245,611.242L781.179,611.121L781.113,610.999L781.048,610.876L780.984,610.752L780.921,610.627L780.859,610.501L780.797,610.374L780.736,610.246L780.675,610.117L780.616,609.987L780.557,609.855L780.499,609.723L780.442,609.59L780.385,609.455L864.481,609.455L864.422,609.59ZM782.446,610.746L782.498,610.836L782.56,610.944L782.624,611.051L782.688,611.157L782.752,611.261L782.818,611.365L782.884,611.468L782.95,611.569L783.017,611.67L783.085,611.769L783.154,611.868L783.222,611.965L783.292,612.061L783.362,612.157L783.433,612.251L783.504,612.344L783.576,612.436L783.648,612.527L783.722,612.617L783.795,612.706L783.87,612.794L783.945,612.881L784.02,612.967L784.096,613.052L784.173,613.136L784.25,613.218L784.328,613.3L784.407,613.381L784.486,613.461L784.566,613.54L784.647,613.618L784.728,613.695L784.809,613.77L784.892,613.846L784.975,613.92L785.058,613.992L785.142,614.065L785.227,614.136L785.312,614.206L785.398,614.275L785.485,614.343L785.572,614.41L785.66,614.477L785.749,614.542L785.838,614.606L785.928,614.67L786.018,614.732L786.11,614.794L786.202,614.855L786.295,614.914L786.387,614.973L786.482,615.031L786.576,615.088L786.671,615.143L786.767,615.199L786.864,615.253L786.962,615.306L787.059,615.358L787.159,615.41L787.258,615.46L787.358,615.509L787.459,615.558L787.561,615.606L787.663,615.653L787.766,615.699L787.87,615.744L787.975,615.788L788.08,615.831L788.186,615.873L788.292,615.914L788.4,615.955L788.509,615.994L788.618,616.033L788.727,616.07L788.838,616.107L788.949,616.143L789.062,616.178L789.175,616.212L789.288,616.245L789.403,616.277L789.518,616.308L789.634,616.338L789.751,616.368L789.869,616.396L789.987,616.423L790.106,616.45L790.227,616.476L790.347,616.5L790.468,616.524L790.591,616.547L790.715,616.568L790.838,616.589L790.963,616.609L791.089,616.628L791.216,616.646L791.343,616.663L791.471,616.679L791.6,616.694L791.73,616.709L791.861,616.722L791.992,616.734L792.124,616.745L792.257,616.756L792.391,616.765L792.526,616.773L792.661,616.781L792.797,616.787L792.935,616.792L793.073,616.797L793.211,616.8L793.351,616.803L793.492,616.804L793.635,616.805L851.231,616.805L851.372,616.804L851.51,616.803L851.647,616.8L851.784,616.797L851.92,616.792L852.055,616.787L852.189,616.781L852.322,616.773L852.455,616.765L852.587,616.756L852.718,616.745L852.848,616.734L852.977,616.722L853.106,616.709L853.235,616.695L853.362,616.679L853.488,616.663L853.613,616.646L853.738,616.628L853.863,616.609L853.986,616.59L854.108,616.569L854.23,616.547L854.351,616.524L854.471,616.501L854.59,616.476L854.709,616.45L854.827,616.424L854.944,616.397L855.061,616.368L855.176,616.339L855.291,616.309L855.405,616.278L855.519,616.246L855.631,616.213L855.743,616.179L855.855,616.144L855.965,616.108L856.075,616.071L856.183,616.034L856.292,615.995L856.399,615.956L856.507,615.915L856.613,615.874L856.718,615.832L856.822,615.789L856.927,615.745L857.03,615.699L857.133,615.654L857.235,615.607L857.336,615.559L857.437,615.51L857.536,615.461L857.636,615.411L857.734,615.359L857.832,615.307L857.929,615.253L858.026,615.199L858.122,615.144L858.217,615.088L858.312,615.031L858.406,614.973L858.499,614.914L858.592,614.854L858.684,614.794L858.776,614.732L858.867,614.669L858.957,614.606L859.046,614.541L859.135,614.476L859.224,614.409L859.312,614.342L859.398,614.274L859.485,614.204L859.571,614.134L859.657,614.063L859.741,613.991L859.825,613.917L859.909,613.843L859.992,613.768L860.074,613.692L860.156,613.615L860.238,613.537L860.318,613.458L860.398,613.377L860.478,613.296L860.557,613.214L860.635,613.131L860.713,613.047L860.79,612.962L860.867,612.876L860.943,612.788L861.018,612.7L861.093,612.611L861.168,612.52L861.241,612.429L861.314,612.337L861.387,612.243L861.459,612.149L861.531,612.053L861.601,611.957L861.672,611.859L861.742,611.76L861.811,611.661L861.88,611.56L861.948,611.458L862.015,611.355L862.082,611.251L862.148,611.146L862.214,611.04L862.279,610.932L862.344,610.824L862.39,610.746L782.446,610.746ZM865.633,603.695L865.632,603.819L865.631,603.938L865.628,604.053L865.624,604.163L865.619,604.269L865.613,604.37L865.605,604.467L865.597,604.559L865.587,604.647L865.577,604.73L865.565,604.809L865.552,604.883L865.538,604.953L865.523,605.018L865.506,605.079L865.489,605.135L865.488,605.208L865.484,605.284L865.479,605.361L865.471,605.441L865.461,605.523L865.448,605.608L865.434,605.694L865.417,605.783L865.408,605.828L865.4,605.874L865.392,605.921L865.385,605.968L865.373,606.063L865.363,606.161L865.355,606.261L865.349,606.364L865.346,606.468L865.345,606.575L779.521,606.575L779.52,606.468L779.516,606.364L779.511,606.261L779.503,606.161L779.493,606.063L779.48,605.968L779.473,605.921L779.466,605.874L779.458,605.828L779.449,605.783L779.432,605.694L779.417,605.608L779.405,605.523L779.395,605.441L779.387,605.361L779.381,605.284L779.378,605.208L779.377,605.135L779.359,605.079L779.343,605.018L779.328,604.953L779.314,604.883L779.301,604.809L779.289,604.73L779.278,604.647L779.269,604.559L779.26,604.467L779.253,604.37L779.247,604.269L779.242,604.163L779.238,604.053L779.235,603.938L779.233,603.819L779.233,603.695L779.233,597.935L865.633,597.935L865.633,603.695ZM780.523,599.225L780.523,603.692L780.524,603.807L780.525,603.913L780.528,604.014L780.531,604.109L780.535,604.199L780.541,604.282L780.546,604.36L780.553,604.43L780.56,604.494L780.567,604.552L780.575,604.603L780.582,604.645L780.589,604.679L780.595,604.705L780.599,604.72L780.609,604.752L780.651,604.932L780.667,605.116L780.668,605.17L780.67,605.208L780.673,605.252L780.676,605.285L864.19,605.285L864.193,605.252L864.196,605.208L864.198,605.169L864.199,605.114L864.215,604.932L864.256,604.754L864.267,604.721L864.271,604.705L864.277,604.679L864.284,604.645L864.291,604.603L864.299,604.552L864.306,604.495L864.313,604.431L864.319,604.36L864.325,604.282L864.33,604.199L864.335,604.109L864.338,604.014L864.341,603.913L864.342,603.807L864.343,603.692L864.343,599.225L780.523,599.225ZM800.833,595.055L779.233,595.055L779.233,586.415L800.833,586.415L800.833,595.055ZM865.633,595.055L844.033,595.055L844.033,586.415L865.633,586.415L865.633,595.055ZM845.323,587.705L845.323,593.765L864.343,593.765L864.343,587.705L845.323,587.705ZM780.523,587.705L780.523,593.765L799.543,593.765L799.543,587.705L780.523,587.705ZM800.833,583.535L779.233,583.535L779.233,574.895L800.833,574.895L800.833,583.535ZM865.633,583.535L844.033,583.535L844.033,574.895L865.633,574.895L865.633,583.535ZM845.323,576.185L845.323,582.245L864.343,582.245L864.343,576.185L845.323,576.185ZM780.523,576.185L780.523,582.245L799.543,582.245L799.543,576.185L780.523,576.185ZM865.633,572.015L844.033,572.015L844.033,563.375L865.633,563.375L865.633,572.015ZM800.833,572.015L779.233,572.015L779.233,563.375L800.833,563.375L800.833,572.015ZM780.523,564.666L780.523,570.725L799.543,570.725L799.543,564.666L780.523,564.666ZM845.323,564.666L845.323,570.725L864.343,570.725L864.343,564.666L845.323,564.666ZM865.633,560.495L844.033,560.495L844.033,551.855L865.633,551.855L865.633,560.495ZM800.833,560.495L779.233,560.495L779.233,551.855L800.833,551.855L800.833,560.495ZM780.523,553.145L780.523,559.205L799.543,559.205L799.543,553.145L780.523,553.145ZM845.323,553.145L845.323,559.205L864.343,559.205L864.343,553.145L845.323,553.145ZM865.633,548.975L844.033,548.975L844.033,540.335L865.633,540.335L865.633,548.975ZM800.833,548.975L779.233,548.975L779.233,540.335L800.833,540.335L800.833,548.975ZM780.523,541.625L780.523,547.685L799.543,547.685L799.543,541.625L780.523,541.625ZM845.323,541.625L845.323,547.685L864.343,547.685L864.343,541.625L845.323,541.625ZM865.346,528.922L865.349,529.027L865.355,529.129L865.363,529.229L865.373,529.327L865.385,529.423L865.392,529.47L865.4,529.516L865.408,529.562L865.417,529.607L865.434,529.696L865.448,529.783L865.461,529.867L865.471,529.949L865.479,530.029L865.484,530.107L865.488,530.182L865.489,530.255L865.506,530.311L865.523,530.372L865.538,530.437L865.552,530.507L865.565,530.581L865.577,530.66L865.587,530.743L865.597,530.831L865.605,530.923L865.613,531.02L865.619,531.121L865.624,531.227L865.628,531.337L865.631,531.452L865.632,531.571L865.633,531.695L865.633,537.455L779.233,537.455L779.233,531.695L779.233,531.571L779.235,531.452L779.238,531.337L779.242,531.227L779.247,531.121L779.253,531.02L779.26,530.923L779.269,530.831L779.278,530.743L779.289,530.66L779.301,530.581L779.314,530.507L779.328,530.437L779.343,530.372L779.359,530.311L779.377,530.255L779.378,530.182L779.381,530.107L779.387,530.029L779.395,529.949L779.405,529.867L779.417,529.783L779.432,529.696L779.449,529.607L779.458,529.562L779.466,529.516L779.473,529.47L779.48,529.423L779.493,529.327L779.503,529.229L779.511,529.129L779.516,529.027L779.52,528.922L779.521,528.815L865.345,528.815L865.346,528.922ZM780.676,530.105L780.673,530.139L780.67,530.182L780.668,530.221L780.667,530.275L780.651,530.458L780.609,530.638L780.599,530.67L780.595,530.686L780.589,530.711L780.582,530.745L780.575,530.788L780.567,530.838L780.56,530.896L780.553,530.96L780.546,531.031L780.541,531.108L780.535,531.191L780.531,531.281L780.528,531.376L780.525,531.477L780.524,531.584L780.523,531.698L780.523,536.165L864.343,536.165L864.343,531.698L864.342,531.583L864.341,531.477L864.338,531.376L864.335,531.281L864.33,531.192L864.325,531.108L864.319,531.031L864.313,530.959L864.306,530.895L864.299,530.838L864.291,530.788L864.284,530.746L864.277,530.712L864.271,530.686L864.266,530.669L864.256,530.636L864.215,530.458L864.199,530.276L864.198,530.221L864.196,530.182L864.193,530.139L864.19,530.105L780.676,530.105ZM851.381,517.296L851.529,517.297L851.675,517.3L851.821,517.304L851.967,517.308L852.111,517.314L852.255,517.321L852.398,517.329L852.541,517.338L852.683,517.348L852.824,517.359L852.964,517.371L853.104,517.384L853.243,517.399L853.381,517.414L853.519,517.43L853.656,517.448L853.792,517.466L853.928,517.486L854.062,517.506L854.196,517.528L854.33,517.55L854.462,517.574L854.594,517.599L854.726,517.625L854.856,517.652L854.986,517.68L855.115,517.709L855.244,517.739L855.372,517.77L855.499,517.802L855.625,517.835L855.751,517.869L855.876,517.905L856,517.941L856.123,517.979L856.246,518.017L856.368,518.057L856.49,518.097L856.61,518.139L856.73,518.182L856.85,518.225L856.968,518.27L857.086,518.316L857.204,518.363L857.32,518.411L857.436,518.46L857.551,518.51L857.665,518.561L857.779,518.614L857.892,518.667L858.004,518.721L858.116,518.776L858.227,518.833L858.337,518.89L858.446,518.949L858.555,519.008L858.663,519.069L858.771,519.131L858.877,519.194L858.983,519.257L859.089,519.322L859.193,519.388L859.297,519.455L859.4,519.523L859.503,519.592L859.604,519.662L859.705,519.734L859.806,519.806L859.905,519.879L860.004,519.953L860.102,520.029L860.2,520.105L860.297,520.183L860.393,520.261L860.488,520.341L860.583,520.422L860.677,520.504L860.77,520.586L860.863,520.67L860.955,520.755L861.046,520.841L861.137,520.928L861.226,521.016L861.315,521.105L861.404,521.195L861.491,521.287L861.578,521.379L861.665,521.472L861.75,521.567L861.835,521.662L861.919,521.759L862.003,521.856L862.086,521.955L862.168,522.054L862.249,522.155L862.33,522.257L862.41,522.36L862.489,522.464L862.567,522.569L862.645,522.675L862.722,522.782L862.799,522.89L862.874,522.999L862.949,523.109L863.024,523.22L863.097,523.333L863.17,523.446L863.243,523.561L863.314,523.676L863.385,523.793L863.455,523.91L863.524,524.029L863.593,524.149L863.661,524.269L863.728,524.391L863.795,524.514L863.861,524.638L863.926,524.763L863.99,524.889L864.054,525.016L864.117,525.144L864.18,525.273L864.241,525.404L864.302,525.535L864.363,525.667L864.422,525.801L864.481,525.935L780.385,525.935L780.442,525.801L780.499,525.667L780.557,525.535L780.616,525.404L780.675,525.273L780.736,525.144L780.797,525.016L780.859,524.889L780.921,524.763L780.984,524.638L781.048,524.514L781.113,524.391L781.179,524.269L781.245,524.149L781.312,524.029L781.379,523.91L781.448,523.793L781.517,523.676L781.587,523.561L781.658,523.446L781.729,523.333L781.801,523.22L781.874,523.109L781.948,522.999L782.022,522.89L782.097,522.782L782.173,522.675L782.249,522.569L782.327,522.464L782.405,522.36L782.483,522.257L782.563,522.155L782.643,522.054L782.724,521.955L782.806,521.856L782.888,521.759L782.972,521.662L783.055,521.567L783.14,521.472L783.226,521.379L783.312,521.287L783.399,521.195L783.486,521.105L783.575,521.016L783.664,520.928L783.754,520.841L783.844,520.755L783.935,520.67L784.027,520.586L784.12,520.504L784.214,520.422L784.308,520.341L784.403,520.261L784.499,520.183L784.595,520.105L784.693,520.029L784.791,519.953L784.889,519.879L784.989,519.806L785.089,519.734L785.19,519.662L785.291,519.592L785.394,519.523L785.497,519.455L785.601,519.388L785.705,519.322L785.811,519.257L785.917,519.194L786.024,519.131L786.131,519.069L786.24,519.008L786.349,518.949L786.458,518.89L786.569,518.833L786.68,518.776L786.792,518.721L786.905,518.667L787.018,518.614L787.132,518.561L787.247,518.51L787.363,518.46L787.48,518.411L787.597,518.363L787.715,518.316L787.833,518.27L787.953,518.225L788.073,518.182L788.194,518.139L788.315,518.097L788.437,518.057L788.561,518.017L788.684,517.979L788.809,517.941L788.934,517.905L789.06,517.869L789.187,517.835L789.314,517.802L789.443,517.77L789.572,517.739L789.701,517.709L789.832,517.68L789.963,517.652L790.095,517.625L790.228,517.599L790.361,517.574L790.495,517.55L790.63,517.528L790.766,517.506L790.902,517.486L791.039,517.466L791.177,517.448L791.315,517.43L791.455,517.414L791.595,517.399L791.736,517.384L791.877,517.371L792.019,517.359L792.162,517.348L792.306,517.338L792.451,517.329L792.596,517.321L792.742,517.314L792.888,517.308L793.036,517.304L793.184,517.3L793.333,517.297L793.483,517.296L793.633,517.295L851.233,517.295L851.381,517.296ZM793.635,518.585L793.492,518.586L793.351,518.587L793.212,518.59L793.073,518.593L792.935,518.598L792.798,518.603L792.661,518.61L792.526,518.617L792.391,518.625L792.257,518.635L792.124,518.645L791.992,518.656L791.86,518.669L791.73,518.682L791.6,518.696L791.471,518.711L791.343,518.727L791.216,518.744L791.089,518.762L790.964,518.781L790.839,518.801L790.714,518.822L790.591,518.844L790.469,518.866L790.347,518.89L790.226,518.915L790.106,518.94L789.987,518.967L789.869,518.994L789.751,519.023L789.634,519.052L789.518,519.082L789.403,519.113L789.288,519.146L789.175,519.179L789.061,519.213L788.949,519.247L788.838,519.283L788.728,519.32L788.618,519.358L788.509,519.396L788.4,519.436L788.293,519.476L788.186,519.517L788.08,519.559L787.975,519.603L787.87,519.647L787.766,519.692L787.663,519.738L787.561,519.784L787.459,519.832L787.358,519.881L787.258,519.93L787.158,519.981L787.06,520.032L786.962,520.084L786.864,520.138L786.767,520.192L786.671,520.247L786.576,520.303L786.482,520.36L786.388,520.417L786.294,520.476L786.202,520.536L786.11,520.597L786.018,520.658L785.928,520.721L785.838,520.784L785.749,520.848L785.66,520.914L785.572,520.98L785.485,521.047L785.398,521.115L785.312,521.185L785.227,521.255L785.142,521.326L785.058,521.398L784.974,521.471L784.892,521.545L784.809,521.62L784.727,521.696L784.647,521.772L784.566,521.85L784.486,521.929L784.407,522.009L784.329,522.09L784.25,522.172L784.173,522.255L784.096,522.339L784.02,522.423L783.945,522.509L783.87,522.597L783.795,522.684L783.722,522.773L783.649,522.863L783.576,522.954L783.504,523.046L783.433,523.14L783.362,523.234L783.292,523.329L783.222,523.425L783.153,523.523L783.085,523.621L783.017,523.72L782.95,523.821L782.884,523.922L782.818,524.025L782.753,524.129L782.688,524.234L782.624,524.339L782.56,524.446L782.498,524.554L782.446,524.645L862.39,524.645L862.344,524.566L862.279,524.458L862.214,524.351L862.148,524.244L862.082,524.139L862.015,524.035L861.948,523.933L861.88,523.83L861.811,523.73L861.742,523.63L861.672,523.531L861.601,523.433L861.531,523.337L861.459,523.242L861.387,523.147L861.314,523.053L861.241,522.961L861.168,522.87L861.093,522.78L861.018,522.69L860.943,522.602L860.867,522.515L860.79,522.429L860.713,522.344L860.635,522.259L860.557,522.176L860.478,522.094L860.398,522.013L860.318,521.933L860.237,521.854L860.156,521.776L860.075,521.698L859.992,521.622L859.909,521.547L859.826,521.473L859.741,521.4L859.656,521.327L859.571,521.256L859.485,521.186L859.398,521.117L859.312,521.048L859.224,520.981L859.135,520.915L859.046,520.849L858.957,520.785L858.867,520.721L858.776,520.658L858.684,520.597L858.592,520.536L858.499,520.476L858.406,520.417L858.312,520.359L858.217,520.302L858.122,520.246L858.026,520.191L857.93,520.137L857.832,520.084L857.734,520.031L857.636,519.98L857.537,519.929L857.437,519.88L857.336,519.831L857.235,519.784L857.133,519.737L857.03,519.691L856.927,519.646L856.823,519.602L856.718,519.558L856.613,519.516L856.507,519.475L856.399,519.435L856.292,519.395L856.184,519.357L856.075,519.319L855.965,519.282L855.855,519.247L855.743,519.212L855.631,519.178L855.519,519.145L855.405,519.113L855.291,519.082L855.176,519.051L855.061,519.022L854.944,518.994L854.827,518.966L854.709,518.94L854.59,518.914L854.471,518.89L854.351,518.866L854.23,518.843L854.108,518.822L853.986,518.801L853.862,518.781L853.738,518.762L853.613,518.744L853.488,518.727L853.362,518.711L853.234,518.696L853.106,518.682L852.978,518.668L852.848,518.656L852.718,518.645L852.587,518.635L852.455,518.625L852.322,518.617L852.189,518.61L852.055,518.603L851.92,518.598L851.784,518.593L851.647,518.59L851.51,518.587L851.372,518.586L851.231,518.585L793.635,518.585Z" style="fill:rgb(13,202,242);"/>
                <path d="M985.441,618.095L958.081,618.095L954.625,609.455L988.897,609.455L985.441,618.095ZM942.241,618.095L914.881,618.095L911.425,609.455L945.697,609.455L942.241,618.095ZM913.331,610.745L915.755,616.805L941.367,616.805L943.791,610.745L913.331,610.745ZM956.531,610.745L958.955,616.805L984.567,616.805L986.991,610.745L956.531,610.745ZM990.049,606.575L953.473,606.575L950.161,598.223L946.849,606.575L910.273,606.575L906.817,597.935L993.505,597.935L990.049,606.575ZM951.946,599.225L954.349,605.285L989.175,605.285L991.599,599.225L951.946,599.225ZM908.723,599.225L911.147,605.285L945.973,605.285L948.375,599.225L908.723,599.225ZM928.561,591.167L930.433,586.415L969.889,586.415L971.761,591.167L973.633,586.415L998.113,586.415L994.657,595.055L905.665,595.055L902.209,586.415L926.689,586.415L928.561,591.167ZM904.115,587.705L906.539,593.765L993.783,593.765L996.207,587.705L974.511,587.705L972.962,591.64L972.844,591.868L972.684,592.069L972.487,592.234L972.262,592.356L972.016,592.432L971.761,592.457L971.506,592.432L971.26,592.356L971.035,592.234L970.838,592.069L970.678,591.868L970.56,591.64L969.01,587.705L931.311,587.705L929.761,591.64L929.644,591.868L929.484,592.069L929.287,592.234L929.062,592.356L928.816,592.432L928.561,592.457L928.305,592.432L928.06,592.356L927.835,592.234L927.638,592.069L927.478,591.868L927.36,591.64L925.81,587.705L904.115,587.705ZM925.537,583.535L901.057,583.535L897.601,574.895L922.081,574.895L925.537,583.535ZM968.737,583.535L931.585,583.535L935.041,574.895L965.281,574.895L968.737,583.535ZM999.265,583.535L974.785,583.535L978.241,574.895L1002.72,574.895L999.265,583.535ZM979.115,576.185L976.691,582.245L998.391,582.245L1000.82,576.185L979.115,576.185ZM935.914,576.185L933.491,582.245L966.831,582.245L964.407,576.185L935.914,576.185ZM899.507,576.185L901.931,582.245L923.631,582.245L921.207,576.185L899.507,576.185ZM962.401,567.695L964.129,572.015L936.193,572.015L937.921,567.695L936.193,563.375L964.129,563.375L962.401,567.695ZM920.929,572.015L896.449,572.015L892.993,563.375L917.473,563.375L920.929,572.015ZM1003.87,572.015L979.393,572.015L982.849,563.375L1007.33,563.375L1003.87,572.015ZM983.723,564.666L981.299,570.725L1003,570.725L1005.42,564.666L983.723,564.666ZM938.099,564.666L939.119,567.216L939.188,567.451L939.211,567.695L939.188,567.939L939.119,568.174L938.099,570.725L962.223,570.725L961.203,568.174L961.134,567.939L961.111,567.695L961.134,567.451L961.203,567.216L962.223,564.666L938.099,564.666ZM894.899,564.666L897.323,570.725L919.023,570.725L916.599,564.666L894.899,564.666ZM916.321,560.495L891.841,560.495L888.385,551.855L912.865,551.855L916.321,560.495ZM965.281,560.495L935.041,560.495L931.585,551.855L968.737,551.855L965.281,560.495ZM1008.48,560.495L984.001,560.495L987.457,551.855L1011.94,551.855L1008.48,560.495ZM933.491,553.145L935.914,559.205L964.407,559.205L966.831,553.145L933.491,553.145ZM890.291,553.145L892.715,559.205L914.415,559.205L911.991,553.145L890.291,553.145ZM988.331,553.145L985.907,559.205L1007.61,559.205L1010.03,553.145L988.331,553.145ZM1013.09,548.975L988.609,548.975L992.065,540.335L1016.55,540.335L1013.09,548.975ZM969.889,548.975L930.433,548.975L926.977,540.335L973.345,540.335L969.889,548.975ZM911.713,548.975L887.233,548.975L883.777,540.335L908.257,540.335L911.713,548.975ZM992.938,541.625L990.515,547.685L1012.22,547.685L1014.64,541.625L992.938,541.625ZM885.683,541.625L888.107,547.685L909.807,547.685L907.383,541.625L885.683,541.625ZM928.883,541.625L931.307,547.685L969.015,547.685L971.439,541.625L928.883,541.625ZM907.105,537.455L882.625,537.455L879.169,528.815L903.649,528.815L907.105,537.455ZM950.161,537.023L953.473,528.815L977.953,528.815L974.497,537.455L925.825,537.455L922.369,528.815L946.849,528.815L950.161,537.023ZM1017.7,537.455L993.217,537.455L996.673,528.815L1021.15,528.815L1017.7,537.455ZM924.275,530.105L926.698,536.165L948.423,536.165L945.978,530.105L924.275,530.105ZM997.547,530.105L995.123,536.165L1016.82,536.165L1019.25,530.105L997.547,530.105ZM954.344,530.105L951.899,536.165L973.623,536.165L976.047,530.105L954.344,530.105ZM881.075,530.105L883.499,536.165L905.199,536.165L902.775,530.105L881.075,530.105ZM902.497,525.935L878.017,525.935L874.561,517.295L899.041,517.295L902.497,525.935ZM945.697,525.935L921.217,525.935L917.761,517.295L942.241,517.295L945.697,525.935ZM979.105,525.935L954.625,525.935L958.081,517.295L982.561,517.295L979.105,525.935ZM1022.31,525.935L997.825,525.935L1001.28,517.295L1025.76,517.295L1022.31,525.935ZM919.667,518.585L922.091,524.645L943.791,524.645L941.367,518.585L919.667,518.585ZM876.467,518.585L878.891,524.645L900.591,524.645L898.167,518.585L876.467,518.585ZM1002.15,518.585L999.731,524.645L1021.43,524.645L1023.86,518.585L1002.15,518.585ZM958.955,518.585L956.531,524.645L978.231,524.645L980.655,518.585L958.955,518.585Z" style="fill:rgb(13,202,242);"/>
                <path d="M1056.58,618.095L1034.98,618.095L1034.98,609.455L1056.58,609.455L1056.58,618.095ZM1121.38,618.095L1099.78,618.095L1093.59,609.455L1121.38,609.455L1121.38,618.095ZM1036.27,610.746L1036.27,616.805L1055.29,616.805L1055.29,610.746L1036.27,610.746ZM1096.1,610.746L1100.44,616.805L1120.09,616.805L1120.09,610.746L1096.1,610.746ZM1056.58,606.575L1034.98,606.575L1034.98,597.935L1056.58,597.935L1056.58,606.575ZM1121.38,606.575L1091.57,606.575L1085.38,597.935L1121.38,597.935L1121.38,606.575ZM1087.89,599.225L1092.23,605.285L1120.09,605.285L1120.09,599.225L1087.89,599.225ZM1036.27,599.225L1036.27,605.285L1055.29,605.285L1055.29,599.225L1036.27,599.225ZM1056.58,595.055L1034.98,595.055L1034.98,586.415L1056.58,586.415L1056.58,595.055ZM1121.38,595.055L1083.36,595.055L1077.17,586.415L1121.38,586.415L1121.38,595.055ZM1036.27,587.705L1036.27,593.765L1055.29,593.765L1055.29,587.705L1036.27,587.705ZM1079.68,587.705L1084.02,593.765L1120.09,593.765L1120.09,587.705L1079.68,587.705ZM1056.58,583.535L1034.98,583.535L1034.98,574.895L1056.58,574.895L1056.58,583.535ZM1099.78,577.775L1099.78,574.895L1121.38,574.895L1121.38,583.535L1075.15,583.535L1068.96,574.895L1097.76,574.895L1099.78,577.775ZM1036.27,576.185L1036.27,582.245L1055.29,582.245L1055.29,576.185L1036.27,576.185ZM1071.47,576.185L1075.82,582.245L1120.09,582.245L1120.09,576.185L1101.07,576.185L1101.07,577.775L1101.05,577.992L1100.99,578.202L1100.9,578.401L1100.78,578.581L1100.63,578.739L1100.46,578.869L1100.27,578.969L1100.06,579.034L1099.84,579.064L1099.63,579.057L1099.41,579.013L1099.21,578.935L1099.02,578.823L1098.86,578.682L1098.72,578.515L1097.09,576.185L1071.47,576.185ZM1056.58,572.015L1034.98,572.015L1034.98,563.375L1056.58,563.375L1056.58,572.015ZM1095.6,572.015L1066.8,572.015L1060.75,563.375L1089.55,563.375L1095.6,572.015ZM1121.38,572.015L1099.78,572.015L1099.78,563.375L1121.38,563.375L1121.38,572.015ZM1036.27,564.666L1036.27,570.725L1055.29,570.725L1055.29,564.666L1036.27,564.666ZM1101.07,564.666L1101.07,570.725L1120.09,570.725L1120.09,564.666L1101.07,564.666ZM1063.23,564.666L1067.47,570.725L1093.12,570.725L1088.88,564.666L1063.23,564.666ZM1121.38,560.495L1099.78,560.495L1099.78,551.855L1121.38,551.855L1121.38,560.495ZM1087.39,560.495L1058.59,560.495L1056.58,557.615L1056.58,560.495L1034.98,560.495L1034.98,551.855L1081.2,551.855L1087.39,560.495ZM1036.27,553.145L1036.27,559.205L1055.29,559.205L1055.29,557.615L1055.31,557.398L1055.36,557.188L1055.45,556.99L1055.57,556.809L1055.72,556.651L1055.89,556.521L1056.09,556.422L1056.29,556.356L1056.51,556.327L1056.73,556.334L1056.94,556.377L1057.14,556.455L1057.33,556.567L1057.5,556.708L1057.63,556.875L1059.27,559.205L1084.88,559.205L1080.54,553.145L1036.27,553.145ZM1101.07,553.145L1101.07,559.205L1120.09,559.205L1120.09,553.145L1101.07,553.145ZM1121.38,548.975L1099.78,548.975L1099.78,540.335L1121.38,540.335L1121.38,548.975ZM1079.18,548.975L1034.98,548.975L1034.98,540.335L1072.99,540.335L1079.18,548.975ZM1101.07,541.625L1101.07,547.685L1120.09,547.685L1120.09,541.625L1101.07,541.625ZM1036.27,541.625L1036.27,547.685L1076.67,547.685L1072.33,541.625L1036.27,541.625ZM1070.98,537.455L1034.98,537.455L1034.98,528.815L1064.79,528.815L1070.98,537.455ZM1121.38,537.455L1099.78,537.455L1099.78,528.815L1121.38,528.815L1121.38,537.455ZM1101.07,530.105L1101.07,536.165L1120.09,536.165L1120.09,530.105L1101.07,530.105ZM1036.27,530.105L1036.27,536.165L1068.46,536.165L1064.12,530.105L1036.27,530.105ZM1062.77,525.935L1034.98,525.935L1034.98,517.295L1056.58,517.295L1062.77,525.935ZM1121.38,525.935L1099.78,525.935L1099.78,517.295L1121.38,517.295L1121.38,525.935ZM1101.07,518.585L1101.07,524.645L1120.09,524.645L1120.09,518.585L1101.07,518.585ZM1036.27,518.585L1036.27,524.645L1060.26,524.645L1055.91,518.585L1036.27,518.585Z" style="fill:rgb(13,202,242);"/>
            </g>
        </g>
    </g>
</svg>
